<svg width="104" height="125" viewBox="0 0 104 125" fill="none" xmlns="http://www.w3.org/2000/svg">
<path fill-rule="evenodd" clip-rule="evenodd" d="M102.935 72.7651C102.76 71.8127 102.398 70.9044 101.871 70.0919C101.344 69.2794 100.662 68.5786 99.8642 68.0296C100.139 67.3663 100.347 66.6774 100.487 65.9731C100.99 63.6154 100.822 61.1635 99.9995 58.897C99.1444 56.6233 97.6561 54.642 95.7105 53.1874C94.6708 52.4186 93.5153 51.8203 92.2875 51.415C91.7432 51.24 91.187 51.1044 90.6233 51.0091C90.9909 50.452 91.2992 49.858 91.5433 49.2367C93.3293 44.6636 91.3539 39.4141 87.985 36.1128C86.2912 34.4723 84.2789 33.1967 82.0724 32.365C82.7136 31.4309 83.1133 30.3524 83.236 29.2261C83.5073 27.7686 83.328 26.263 82.7219 24.9101C82.0937 23.7034 81.2177 22.6429 80.1512 21.7982C78.7239 20.5602 77.1008 19.568 75.3481 18.8622C76.086 18.2913 76.7376 17.6169 77.2829 16.8598C78.357 15.3449 79.0233 13.579 79.2176 11.732C79.4041 9.90783 79.1144 8.06646 78.3769 6.38759C77.6395 4.70873 76.4794 3.24971 75.0099 2.15291C73.394 0.883993 71.4318 0.134016 69.3815 0.00166997C69.1623 -0.00923011 68.9437 0.0333544 68.7446 0.125751C68.5456 0.218147 68.372 0.357581 68.2388 0.532028C68.1056 0.706474 68.0169 0.910696 67.9803 1.12708C67.9436 1.34346 67.9602 1.56551 68.0285 1.77408C68.0285 1.51701 68.0285 2.03114 68.0285 2.07173C68.0285 2.11232 68.0285 2.34233 68.0285 2.47763C68.0348 2.50432 68.0348 2.53212 68.0285 2.55881C68.0349 2.60821 68.0349 2.65823 68.0285 2.70764C68.0285 2.85646 67.9608 3.01882 67.9202 3.16765C67.8903 3.27783 67.8541 3.38624 67.812 3.49237C67.7501 3.60122 67.6959 3.71424 67.6496 3.83061C67.5092 4.08642 67.3557 4.33479 67.1896 4.57475C66.8981 4.96972 66.5466 5.31667 66.1478 5.60302C65.93 5.75031 65.699 5.87713 65.4578 5.98185C65.0768 5.82998 64.6757 5.73428 64.2672 5.69773C63.5373 5.65037 62.8052 5.65037 62.0754 5.69773C59.5047 5.69773 56.4064 5.61655 54.5663 7.75426C53.5482 9.11258 53.0665 10.7985 53.2133 12.4897C53.2252 13.0874 53.1845 13.6851 53.0915 14.2756C53.0009 14.6446 52.8833 15.0063 52.7398 15.358L52.5909 15.4257C52.3194 15.6131 52.0345 15.7804 51.7386 15.9263H51.495L51.1162 16.0616L50.142 16.3186L49.6685 16.3998H49.4791C49.1289 16.4426 48.7765 16.4651 48.4238 16.4675C47.755 16.4767 47.0863 16.4451 46.4213 16.3728H46.2049L45.7313 16.2916L44.6083 16.1157L42.2542 15.6692C40.5915 15.3427 38.8865 15.2925 37.2075 15.5204C35.7085 15.7943 34.309 16.4608 33.1515 17.452C31.994 18.4431 31.12 19.7234 30.6185 21.1623C29.5801 23.9428 29.6138 27.0103 30.7132 29.7673C31.3971 31.5222 32.3412 33.1642 33.5139 34.638L33.6221 34.7733H33.541C33.0507 34.8719 32.5526 34.9262 32.0527 34.9357C31.575 34.9629 31.0962 34.9629 30.6185 34.9357C30.1044 34.8997 29.5935 34.8274 29.0896 34.7192C26.7027 34.0744 24.2532 33.6888 21.7835 33.5692C17.1834 33.7315 12.8538 37.6958 13.1786 42.4989C13.2356 43.3206 13.404 44.1308 13.6792 44.9072H13.4897C12.8691 44.9753 12.2571 45.1067 11.6632 45.2995C10.8539 45.5674 10.124 46.0324 9.53904 46.6525C9.3412 46.6306 9.14156 46.6306 8.94372 46.6525C8.40357 46.6815 7.8658 46.7447 7.33368 46.8419C6.33895 47.0225 5.37078 47.327 4.45182 47.7484C3.4956 48.1365 2.63165 48.7212 1.91607 49.4648C1.20048 50.2083 0.649257 51.094 0.298166 52.0644C-0.29346 54.298 0.00230456 56.6738 1.12349 58.6941C2.17276 60.6957 3.4731 62.5552 4.99302 64.2278C5.91304 65.2831 6.87366 66.2843 7.87487 67.2449C7.74811 68.3769 7.68938 69.5154 7.69898 70.6544C7.69898 72.0525 7.72604 73.4461 7.78016 74.8351C7.87487 77.5411 8.07782 80.2471 8.32135 82.953C8.83549 88.5138 9.67434 94.061 10.635 99.5541C10.9056 101.056 11.1897 102.544 11.5279 104.033C11.6903 104.777 11.8662 105.507 12.0691 106.251C12.1572 106.685 12.2933 107.107 12.475 107.51C12.7112 107.942 13.0505 108.309 13.4627 108.579C13.5943 108.67 13.7492 108.721 13.9092 108.727C13.9411 109.129 14.0762 109.516 14.3015 109.85C14.5963 110.291 14.9266 110.708 15.2892 111.095C15.9572 111.849 16.7162 112.517 17.5487 113.084C19.1743 114.102 20.9077 114.937 22.7171 115.573C26.6543 117.116 30.6591 118.523 34.6639 119.876C38.751 121.277 42.9107 122.455 47.1249 123.407C51.1815 124.359 55.3256 124.89 59.4912 124.99C61.5917 125.045 63.6919 124.872 65.7555 124.476C66.6795 124.285 67.585 124.014 68.4614 123.664C68.5672 123.766 68.6923 123.847 68.8293 123.9C68.9663 123.953 69.1126 123.979 69.2597 123.975C69.7033 123.929 70.1308 123.784 70.5103 123.55C70.8898 123.315 71.2116 122.998 71.4515 122.622C71.9792 121.96 72.4798 121.27 72.9939 120.579C73.8734 119.389 74.7393 118.185 75.6052 116.967C77.337 114.532 79.0147 112.042 80.6383 109.539C83.8584 104.56 86.9296 99.4594 89.6491 94.1963C90.4203 92.708 91.151 91.2062 91.841 89.6638C92.5127 88.3819 93.0131 87.0172 93.3293 85.6049C96.4759 84.6963 99.2464 82.7987 101.231 80.193C102.012 79.1317 102.565 77.9205 102.856 76.6353C103.147 75.3502 103.17 74.0187 102.922 72.7245L102.935 72.7651ZM73.2916 4.42592C73.1563 4.31768 73.2916 4.42592 73.2916 4.42592V4.42592ZM89.4462 87.8238C88.7156 89.0956 87.9985 90.3944 87.2679 91.6933C85.8202 94.2775 84.386 96.8617 82.8707 99.4053C79.8806 104.452 76.7552 109.404 73.3998 114.288C72.4392 115.641 71.465 116.994 70.4638 118.347L69.2732 119.971H69.1244C68.705 120.092 68.2991 120.241 67.8796 120.349C67.0679 120.579 66.2425 120.809 65.4172 120.999C65.0113 121.094 64.6054 121.161 64.1995 121.229L63.7531 121.297L63.0901 121.378C62.2242 121.459 61.3718 121.513 60.5059 121.527C56.7477 121.553 52.9986 121.153 49.3303 120.336C41.1786 118.491 33.1848 116.008 25.4231 112.908L23.9754 112.367L23.3395 112.123L23.0283 111.988C22.9344 111.962 22.8437 111.926 22.7577 111.88H22.5818L22.1894 111.704L21.4859 111.379C21.0529 111.176 20.62 110.96 20.2005 110.716C19.3211 110.243 18.4417 109.729 17.5893 109.214C17.1699 108.944 16.764 108.673 16.3581 108.376C15.9906 108.078 15.5674 107.857 15.1133 107.726C15.25 107.13 15.25 106.51 15.1133 105.913C14.9916 105.223 14.8833 104.56 14.748 103.857C14.491 102.504 14.2204 101.151 13.9633 99.7977C13.4627 97.0917 13.0027 94.3857 12.6103 91.6798C12.2585 89.1632 11.9338 86.4573 11.6497 83.7919C11.3656 81.1265 11.1761 78.38 10.9597 75.674C10.8514 74.1587 10.7432 72.6298 10.662 71.1144C10.662 70.6274 10.662 70.1538 10.5673 69.6803C12.8693 71.4826 15.3332 73.0678 17.9275 74.4157C17.9275 74.4157 17.9275 74.4157 17.9275 74.4969C17.8849 74.5734 17.8625 74.6596 17.8625 74.7472C17.8625 74.8348 17.8849 74.921 17.9275 74.9975C17.9073 75.349 17.9073 75.7013 17.9275 76.0528L17.1563 75.241C16.6557 74.6998 15.8033 75.4981 16.3445 76.0393L17.914 77.717C17.914 78.3394 17.914 78.9482 17.914 79.5706C17.914 79.7871 17.914 79.99 17.914 80.2065C17.251 79.6788 16.561 79.1647 15.8981 78.6506C15.2351 78.1364 14.8833 79.1376 15.3839 79.5165C16.2498 80.1524 17.1022 80.8694 17.9275 81.5189C17.9275 82.3983 17.9275 83.2913 17.9275 84.2248C17.481 84.049 16.8993 84.4954 17.2375 84.969C17.5758 85.4425 17.7246 85.6319 17.9681 85.9567C17.9681 86.9443 18.0358 87.9185 18.0628 88.8926C17.9663 88.8823 17.869 88.902 17.784 88.9488C17.699 88.9957 17.6304 89.0675 17.5876 89.1546C17.5448 89.2417 17.5298 89.3399 17.5446 89.4358C17.5594 89.5317 17.6034 89.6208 17.6705 89.6909L18.0899 90.1238C18.0899 92.0721 18.2117 94.0069 18.2793 95.9552L16.3175 94.1287C15.7763 93.6145 14.9645 94.4263 15.4922 94.9269L18.3199 97.5517C18.3171 98.8132 18.4303 100.072 18.6581 101.313C17.8193 100.501 16.9804 99.6894 16.1551 98.8641C15.668 98.35 14.8968 99.1212 15.3839 99.6218C20.0578 104.441 25.1768 108.808 30.6726 112.665C31.4303 113.192 32.215 113.733 32.9862 114.248C33.7292 114.843 34.5722 115.301 35.4757 115.601C35.5727 115.622 35.6739 115.612 35.7649 115.572C35.856 115.533 35.9323 115.466 35.9832 115.38C36.034 115.295 36.0568 115.196 36.0483 115.097C36.0398 114.998 36.0004 114.905 35.9357 114.829C35.3821 114.251 34.7377 113.766 34.028 113.395L31.9174 112.042C30.5644 111.109 29.2114 110.134 27.8584 109.147C25.1525 107.144 22.5953 105.025 20.187 102.788C20.0382 102.652 19.8894 102.504 19.7405 102.382C19.9969 101.329 20.1061 100.245 20.0652 99.1618C21.5806 100.488 23.114 101.796 24.6654 103.085C26.2168 104.375 27.7772 105.62 29.3467 106.82L30.9162 108.024C30.9023 108.231 30.9023 108.439 30.9162 108.646C30.9175 108.743 30.95 108.836 31.0089 108.912C31.0678 108.989 31.1498 109.044 31.2427 109.07C31.3357 109.096 31.4345 109.091 31.5244 109.056C31.6143 109.021 31.6904 108.958 31.7415 108.876L31.8227 108.741C32.5835 109.383 33.4363 109.908 34.3527 110.297C34.6369 110.392 34.9616 110.013 34.7722 109.756C34.1158 109.016 33.3653 108.365 32.5397 107.821L32.3097 107.645C32.474 107.203 32.6096 106.751 32.7156 106.292C32.9592 105.385 33.2027 104.493 33.3921 103.586C33.7845 101.787 34.0821 99.9736 34.3663 98.1741C34.9481 94.4534 35.4216 90.7192 35.7193 86.9579C35.9402 84.882 36.0261 82.7941 35.9763 80.7071L36.3957 80.7883C37.7487 81.0724 39.1017 81.3295 40.5223 81.5189C41.2529 81.6136 41.9836 81.7489 42.7142 81.803C43.0389 81.803 43.3636 81.803 43.6883 81.803C43.9516 81.8099 44.2139 81.8371 44.473 81.8842C45.3119 82.263 46.2184 82.5336 47.0978 82.8313L49.2085 83.5348C49.0597 84.076 48.9108 84.6172 48.7891 85.1719C48.5861 86.0514 48.3832 86.9443 48.1938 87.8779C47.8149 89.6638 47.3955 91.4498 46.9761 93.2898C46.1102 96.8346 45.1766 100.379 44.2701 103.911C44.013 104.925 43.7289 105.94 43.4854 106.955C43.3636 107.456 43.296 107.956 43.2012 108.457C43.0815 108.971 43.0225 109.498 43.0254 110.026C43.0314 110.132 43.0706 110.232 43.1373 110.314C43.2041 110.396 43.295 110.455 43.397 110.482C43.4991 110.509 43.6071 110.503 43.7056 110.465C43.8041 110.427 43.888 110.358 43.9454 110.27C44.2024 109.925 44.4118 109.547 44.5678 109.147C44.7436 108.7 44.9736 108.281 45.136 107.794C45.4607 106.901 45.7584 105.994 46.029 105.088C46.5702 103.329 47.0437 101.57 47.4767 99.7977C48.3832 96.2123 49.1408 92.5998 49.7903 88.9738C49.9797 87.9726 50.1285 86.9714 50.2773 85.9567C50.372 85.3072 50.4397 84.6037 50.4938 84.0084H50.7103C53.1547 84.7029 55.6352 85.2937 58.1517 85.7808C60.2218 86.1867 62.3054 86.5249 64.4025 86.8226C63.9154 88.1755 63.3877 89.4338 62.9413 90.7598L61.2365 95.7387C60.0865 99.0941 58.8823 102.409 57.6511 105.737C56.7793 107.502 56.2077 109.4 55.9599 111.352C55.9626 111.453 55.9941 111.551 56.0505 111.634C56.107 111.717 56.1861 111.783 56.2786 111.822C56.371 111.862 56.473 111.875 56.5723 111.859C56.6717 111.842 56.7643 111.798 56.8393 111.731C57.8975 110.3 58.6819 108.685 59.1529 106.968C59.7617 105.331 60.3706 103.694 60.9524 102.03C62.1159 98.7018 63.266 95.3464 64.2807 91.9639C64.7678 90.2997 65.1602 88.6356 65.566 86.9714C68.1548 87.2961 70.7525 87.5216 73.3592 87.6479C78.486 87.8892 83.624 87.6354 88.702 86.8902L90.1633 86.6331C89.8927 87.0932 89.6356 87.5532 89.3785 87.9861L89.4462 87.8238ZM34.921 80.3553C34.2039 83.9813 33.8927 87.6885 33.3921 91.3415C32.8915 94.9946 32.2286 98.6206 31.6468 102.247C31.4709 103.288 31.3085 104.33 31.1732 105.372C31.1732 105.764 31.0785 106.143 31.0244 106.522L30.2667 105.94C28.6251 104.686 27.0151 103.401 25.4366 102.084C23.6326 100.569 21.8286 99.022 20.0247 97.4435C20.0247 97.2405 20.0247 97.0376 20.0247 96.8346C19.957 95.1569 19.9164 93.4657 19.8488 91.7745C21.2919 93.2267 22.7802 94.6563 24.3136 96.0634C25.4366 97.0917 26.5731 98.0929 27.7367 99.0806L29.5226 100.582C30.0465 101.057 30.6395 101.45 31.2815 101.746C31.4844 101.827 31.6738 101.543 31.5656 101.367C31.113 100.79 30.5903 100.272 30.0097 99.8247L28.3049 98.3906C27.1549 97.3894 26.0184 96.3882 24.8954 95.3599C23.1455 93.7814 21.4363 92.1578 19.7676 90.4892C19.7676 89.6368 19.6999 88.7979 19.6729 87.9591C20.4735 88.8273 21.3227 89.6495 22.2165 90.4215C23.1354 91.2054 24.0975 91.9371 25.0983 92.6133C25.626 92.9651 26.1672 93.3034 26.7219 93.6145C27.1982 93.9852 27.7713 94.2107 28.3726 94.264C28.4406 94.2587 28.5059 94.235 28.5617 94.1956C28.6174 94.1562 28.6615 94.1025 28.6892 94.0401C28.7169 93.9778 28.7273 93.9091 28.7192 93.8413C28.7111 93.7735 28.6848 93.7092 28.6432 93.6551C28.3707 93.3304 28.0285 93.0714 27.6419 92.8975L26.8978 92.1939C26.3837 91.7339 25.8966 91.2604 25.396 90.8409C25.3283 90.7598 25.2066 90.8409 25.2878 90.9492C25.6936 91.3957 26.1131 91.8286 26.519 92.3021L25.8695 91.8827C24.8506 91.1903 23.8788 90.431 22.9606 89.6097C21.7406 88.564 20.6092 87.4191 19.5782 86.1867C19.5782 85.0772 19.4835 83.9678 19.4293 82.8583C20.0382 83.3995 20.6335 83.9407 21.2288 84.509C22.1353 85.3884 23.0283 86.2949 23.9348 87.2149L25.1795 88.5679C25.522 89.0632 25.9885 89.4597 26.5325 89.7179C26.7219 89.7179 26.8437 89.5962 26.8302 89.4203C26.6384 88.8527 26.3028 88.3446 25.856 87.9455C25.4636 87.472 25.0442 87.012 24.6248 86.5926C23.7183 85.6049 22.7847 84.6578 21.8106 83.7378C20.8364 82.8177 20.2547 82.1683 19.3617 81.4512C19.3617 81.0859 19.3617 80.7206 19.294 80.3553C19.2264 79.99 19.294 79.6112 19.294 79.2323L20.16 80.1659L22.0947 82.236C22.6224 82.8042 23.2718 83.8189 24.0836 83.9407C24.1331 83.953 24.1848 83.9538 24.2347 83.9433C24.2846 83.9328 24.3315 83.9111 24.3719 83.8798C24.4122 83.8486 24.445 83.8086 24.4677 83.7629C24.4904 83.7172 24.5025 83.667 24.503 83.616C24.503 82.7907 23.583 82.1413 23.0553 81.573L21.0529 79.4353L19.1858 77.4329C19.1791 77.3518 19.1791 77.2704 19.1858 77.1893C19.1858 76.9323 19.1858 76.6617 19.1182 76.4046L21.1882 78.8129L22.7847 80.6394C23.2512 81.2575 23.8183 81.7926 24.4624 82.2224C24.6924 82.3713 25.0983 82.1277 24.9766 81.8301C24.6556 81.159 24.2309 80.5426 23.7183 80.0035L22.0541 78.0958L19.4699 75.1328C22.2952 76.5344 25.2268 77.7106 28.2373 78.6506C30.4561 79.3541 32.7156 79.8682 35.0022 80.3553H34.921ZM99.4583 76.337C99.4164 76.434 99.3803 76.5334 99.35 76.6346C99.093 77.1082 98.8494 77.5817 98.5518 77.9876L98.3082 78.3123V78.3935C98.1549 78.5829 97.9925 78.7723 97.8212 78.9617C97.4656 79.3419 97.0859 79.699 96.6846 80.0306L96.4141 80.2471H96.3193L95.6293 80.7071C95.1944 80.9873 94.7425 81.2403 94.2763 81.4648L93.884 81.6542H93.7893L92.991 81.9518C92.4363 82.1413 91.868 82.3171 91.2998 82.466C90.2197 82.7325 89.1269 82.9447 88.0256 83.1019H87.7414H87.5926L86.7132 83.2101L84.8461 83.3995C83.6554 83.5213 82.4648 83.6025 81.2742 83.6566C78.8929 83.7784 76.4981 83.7919 74.1169 83.6566C69.4275 83.537 64.7525 83.0849 60.1271 82.3036C57.4211 81.8436 54.7963 81.3159 52.158 80.6936C50.805 80.3959 49.5603 80.1524 48.2749 79.8276C46.9272 79.407 45.5399 79.1259 44.1348 78.9888C44.0155 78.9813 43.8959 78.9986 43.7836 79.0396C43.6713 79.0806 43.5686 79.1444 43.4822 79.2271C43.3958 79.3097 43.3274 79.4093 43.2814 79.5197C43.2353 79.63 43.2127 79.7487 43.2148 79.8682C42.7548 79.7059 42.2542 79.6247 41.7806 79.5029L38.317 78.5964C35.9898 78.0011 33.7304 77.2434 31.4574 76.4858C27.2052 75.0619 23.0929 73.2503 19.1723 71.0738C15.6049 69.103 12.3268 66.649 9.4308 63.7813C8.70019 63.0507 7.99664 62.293 7.32015 61.5083C6.6382 60.8827 5.98796 60.2234 5.37185 59.5329C4.78311 58.7231 4.26697 57.8628 3.82945 56.9622C3.66318 56.6185 3.52737 56.2608 3.42356 55.8934C3.42356 55.6634 3.28826 55.4198 3.23414 55.1898C3.18002 54.9598 3.23414 54.9869 3.23414 54.8787C3.23414 54.7704 3.23414 54.7975 3.23414 54.7704V54.6622C3.22049 54.4008 3.22049 54.1388 3.23414 53.8774C3.22745 53.81 3.22745 53.742 3.23414 53.6745C3.23414 53.6745 3.23414 53.4039 3.23414 53.3768C3.28265 53.168 3.35059 52.9642 3.43709 52.768V52.6462C3.50473 52.5245 3.55885 52.4027 3.64003 52.2809C3.68483 52.2012 3.73453 52.1244 3.78886 52.0509L3.92416 51.8615C4.04593 51.7127 4.18123 51.5774 4.31652 51.4421C4.44872 51.3409 4.57519 51.2325 4.69536 51.1174C4.85937 50.9938 5.0311 50.8808 5.20949 50.7791L5.81834 50.4544L6.14305 50.3056H6.2107C6.68424 50.1297 7.17132 49.9809 7.67192 49.8456L8.5243 49.6155C8.58059 50.1232 8.75682 50.6101 9.03843 51.0362C9.65722 51.9148 10.4549 52.6525 11.3791 53.201C11.5061 53.2765 11.6468 53.3262 11.7931 53.3474C11.9393 53.3685 12.0883 53.3606 12.2316 53.3242C12.3748 53.2878 12.5094 53.2235 12.6278 53.135C12.7462 53.0465 12.846 52.9356 12.9215 52.8086C12.997 52.6815 13.0468 52.5409 13.0679 52.3946C13.0891 52.2483 13.0812 52.0993 13.0448 51.9561C13.0083 51.8129 12.944 51.6783 12.8556 51.5599C12.7671 51.4415 12.6562 51.3417 12.5291 51.2662C12.0091 50.9442 11.5509 50.5318 11.1761 50.0485C11.0125 49.8611 10.9223 49.6208 10.9223 49.372C10.9223 49.1232 11.0125 48.8829 11.1761 48.6955C11.5802 48.2346 12.1288 47.9245 12.7321 47.8161C13.5982 47.7909 14.4556 47.6358 15.2757 47.3561C15.7006 47.7691 16.1526 48.1533 16.6287 48.5061C17.1563 48.912 17.8869 48.2626 17.3863 47.762C16.7794 47.0732 16.3395 46.2537 16.101 45.3672C15.7983 44.4981 15.6562 43.5812 15.6816 42.6612C15.6959 41.8031 15.8817 40.9565 16.2279 40.1711C16.5741 39.3858 17.0737 38.6776 17.6975 38.0881C17.9805 37.8201 18.2886 37.58 18.6176 37.3711C18.831 37.2361 19.0524 37.1142 19.2805 37.0057L19.5105 36.8975L19.7676 36.7893C20.7097 36.5068 21.6995 36.4194 22.6765 36.5322C24.7877 36.8058 26.8832 37.1897 28.9543 37.6822C30.1354 37.9073 31.3415 37.971 32.5397 37.8717C33.2499 37.795 33.9463 37.622 34.6098 37.3575C34.9196 37.2378 35.1974 37.0479 35.4216 36.8028C36.0304 37.3981 36.7746 37.9122 37.3699 38.494C37.7623 38.8593 38.4658 38.3993 38.1546 37.8852C37.3564 36.5322 36.6393 35.1792 35.841 33.9345C35.0484 32.6997 34.3605 31.4009 33.7845 30.0514C33.4865 29.3355 33.2423 28.5983 33.0539 27.8461C32.9009 27.2674 32.8191 26.6722 32.8103 26.0736C32.8103 25.7625 32.8103 25.4513 32.8103 25.1401C32.8103 24.8289 32.8103 24.8154 32.8103 24.6395C32.8103 24.4636 32.8103 24.5042 32.8103 24.423V24.193C32.8168 24.0984 32.8168 24.0035 32.8103 23.9089L32.8915 23.4894C32.9727 23.1512 33.0809 22.813 33.1892 22.4747C33.1892 22.3529 33.2839 22.2176 33.338 22.0959C33.3776 22.0371 33.4094 21.9734 33.4327 21.9065C33.568 21.6223 33.7304 21.3382 33.8927 21.0676C33.9752 20.9316 34.0655 20.8006 34.1633 20.6752C34.1916 20.628 34.2233 20.5827 34.258 20.5399C34.4605 20.3014 34.6774 20.0755 34.9075 19.8635L35.1781 19.6334L35.4081 19.4846C35.7468 19.2631 36.11 19.0815 36.4905 18.9434L36.7746 18.8487L37.3022 18.6864L37.7623 18.5917H37.9652H38.1411C38.8837 18.524 39.6309 18.524 40.3735 18.5917H40.8606H40.9282H41.1718L42.3083 18.7946C43.783 19.0652 45.2442 19.4034 46.7325 19.5523C48.2669 19.7546 49.8262 19.6488 51.3191 19.2411C51.7447 19.1141 52.157 18.9465 52.5504 18.7405C52.7533 18.6322 52.9292 18.4834 53.1321 18.3481L53.2404 18.2669L53.538 18.0369C53.8865 17.8057 54.1892 17.5122 54.431 17.171C54.5245 17.0335 54.5975 16.8831 54.6475 16.7245C55.4342 16.0252 55.9393 15.0633 56.0681 14.0186C56.1157 12.7562 56.2558 11.4991 56.4875 10.2573C56.5477 10.0675 56.6392 9.88919 56.7581 9.72962L56.9611 9.51314L57.0287 9.44549C57.2373 9.29866 57.4593 9.17182 57.6917 9.06665H57.7864L58.3546 8.91783C59.6264 8.73092 60.9132 8.66749 62.1971 8.72841C63.1577 8.72841 65.2143 8.85018 65.9449 7.94368C67.1491 7.66126 68.239 7.01956 69.0703 6.10362C69.8516 5.25137 70.389 4.20452 70.6262 3.07294C70.8519 3.13519 71.0734 3.21202 71.2892 3.30295H71.4515H71.5327L72.0468 3.56001C72.3896 3.74007 72.7196 3.9435 73.0345 4.16886L73.2645 4.33121L73.6433 4.65593C73.9275 4.913 74.1981 5.19712 74.4551 5.48125L74.7799 5.87361L74.9693 6.15774C75.189 6.4758 75.3835 6.81056 75.5511 7.15895C75.6187 7.28072 75.6864 7.41601 75.7405 7.53778C75.7425 7.57835 75.7425 7.61899 75.7405 7.65955C75.7781 7.75213 75.8098 7.84703 75.8352 7.94368C75.9612 8.30578 76.0607 8.67658 76.1328 9.05312C76.1328 9.05312 76.1328 9.20195 76.1328 9.2696V9.47255C76.1328 9.6755 76.1328 9.86491 76.1328 10.0543C76.1328 10.2437 76.1328 10.3926 76.1328 10.5549C76.1264 10.654 76.1264 10.7535 76.1328 10.8526C76.1231 10.938 76.1231 11.0242 76.1328 11.1097V11.3938C76.1328 11.5832 76.0517 11.7726 75.9975 11.9485C75.9026 12.3206 75.7851 12.6866 75.6458 13.0444L75.5646 13.1933C75.4969 13.3421 75.4293 13.4909 75.3481 13.6397C75.2669 13.7886 74.9557 14.3162 74.7393 14.6274L74.3604 15.1415L74.171 15.3851C73.9004 15.6963 73.6028 15.9669 73.3051 16.251C73.0074 16.5351 72.6963 16.8463 72.3851 17.1575C72.2009 17.3309 72.0333 17.5211 71.8845 17.7257V17.8205C71.7462 17.7775 71.5969 17.7877 71.4657 17.849C71.3345 17.9102 71.2309 18.0182 71.1751 18.1518C71.1193 18.2854 71.1153 18.435 71.1639 18.5714C71.2125 18.7078 71.3103 18.8211 71.438 18.8893L71.6815 18.984C71.756 19.1473 71.8708 19.2889 72.0153 19.3954C72.1597 19.502 72.3289 19.5699 72.5068 19.5929C72.6893 19.6572 72.8816 19.6893 73.0751 19.6876C74.8952 20.647 76.5675 21.8636 78.0405 23.3C78.5215 23.72 78.9735 24.172 79.3935 24.653C79.6636 25.0396 79.8948 25.4521 80.0835 25.8842C80.2684 26.3901 80.3333 26.932 80.273 27.4672V27.589C80.2698 27.625 80.2698 27.6612 80.273 27.6972C80.273 27.8055 80.273 27.9272 80.2053 28.0355C80.1241 28.3872 80.0024 28.7526 79.8941 29.1043C79.6276 29.7465 79.4413 30.419 79.3394 31.1067C79.2986 31.4447 79.3592 31.7872 79.5133 32.0907C79.6675 32.3942 79.9083 32.6451 80.2053 32.8115C80.2715 32.898 80.3488 32.9753 80.4353 33.0415C82.107 34.3086 83.7102 35.6635 85.2384 37.1005C85.9749 37.8053 86.641 38.5801 87.2273 39.4141C87.4934 39.7966 87.7374 40.1941 87.9579 40.6047C88.0797 40.8212 88.1879 41.0376 88.2962 41.2541C88.3785 41.4257 88.4508 41.6018 88.5126 41.7818C88.6805 42.2249 88.8251 42.6765 88.9456 43.1348C89.0603 43.5784 89.1373 44.0311 89.1756 44.4877C89.2026 44.9383 89.2026 45.3901 89.1756 45.8407C89.1756 46.0437 89.1756 46.2466 89.1756 46.4496C89.1809 46.499 89.1809 46.5489 89.1756 46.5984C89.1756 46.7472 89.1756 46.9096 89.0809 47.0584C89.0304 47.2917 88.9671 47.522 88.8915 47.7484L88.7697 48.1137V48.2355C88.5834 48.6421 88.3616 49.0315 88.1067 49.3991L87.9714 49.5614L87.8497 49.7103C87.7008 49.8726 87.5385 50.0214 87.3761 50.1838L86.8755 50.6168L86.5373 50.8468C86.1361 51.0927 85.7205 51.3141 85.2925 51.5097C84.8866 51.677 84.4651 51.8039 84.0343 51.8886H83.8854H83.5742H83.4389C83.2094 51.9088 82.9785 51.9088 82.7489 51.8886C82.2181 51.8353 81.6832 51.8353 81.1524 51.8886C81.029 51.9235 80.9151 51.9859 80.8192 52.071C80.7233 52.1561 80.6478 52.2618 80.5984 52.3802C80.549 52.4985 80.5269 52.6265 80.5338 52.7545C80.5407 52.8826 80.5764 53.0074 80.6383 53.1198C81.0286 53.5565 81.5089 53.9035 82.046 54.1371C82.5832 54.3706 83.1645 54.4851 83.7501 54.4728C84.8051 54.5778 85.8703 54.4579 86.8755 54.121C87.4732 53.8537 88.0403 53.5225 88.5667 53.1333C88.9997 53.2821 89.4462 53.3904 89.7303 53.4715L90.3392 53.6745L90.7856 53.8233L91.0833 53.9316C91.9727 54.3427 92.8086 54.8607 93.5728 55.474L93.8163 55.6634C93.9037 55.7282 93.9852 55.8007 94.0599 55.8799L94.6416 56.4211L95.1152 56.9487L95.3722 57.2599V57.3411L95.4399 57.4358C95.7061 57.8276 95.95 58.2342 96.1705 58.6535C96.2788 58.8564 96.387 59.0729 96.4817 59.2894C96.4856 59.3299 96.4856 59.3706 96.4817 59.4111C96.4817 59.5735 96.617 59.7494 96.6711 59.9253C96.835 60.3937 96.9661 60.8729 97.0635 61.3594C97.0635 61.4677 97.0635 61.5624 97.0635 61.6706C97.0635 61.7789 97.0635 61.8736 97.0635 61.9548V62.1577C97.0635 62.32 97.0635 62.4824 97.0635 62.6312C97.0974 63.1268 97.0974 63.624 97.0635 64.1195V64.5119C97.0698 64.5386 97.0698 64.5664 97.0635 64.5931C97.0635 64.8501 96.9823 65.1207 96.9282 65.3643C96.8152 65.8498 96.6752 66.3286 96.5088 66.7984C96.5034 66.8524 96.5034 66.9068 96.5088 66.9608L96.387 67.2178C96.2787 67.4479 96.157 67.6779 96.0352 67.8943C95.7987 68.2998 95.5413 68.6927 95.264 69.0714L95.0746 69.315C94.8852 69.545 94.6958 69.775 94.4793 69.9915C94.2628 70.2079 93.681 70.7491 93.2751 71.1144L93.1128 71.2633L92.6934 71.588C92.5449 71.7134 92.3866 71.8265 92.2198 71.9262L90.6909 72.9004C90.5352 72.9903 90.3723 73.0672 90.2039 73.1304C89.9134 73.2758 89.6371 73.4479 89.3785 73.6445C89.2673 73.7167 89.1787 73.8189 89.123 73.9392C89.0673 74.0596 89.0468 74.1932 89.0637 74.3248C89.0807 74.4563 89.1345 74.5803 89.2189 74.6826C89.3033 74.7849 89.415 74.8612 89.5409 74.9028C89.8637 75.0104 90.2018 75.0652 90.5421 75.0651C90.8398 75.0651 91.1374 74.984 91.4351 74.9299C91.8959 74.9305 92.3534 74.8528 92.7881 74.6998C93.3855 74.5185 93.9652 74.283 94.5199 73.9963C95.5171 73.457 96.4289 72.7731 97.2258 71.9668C97.7245 71.4818 98.1774 70.9519 98.5788 70.3838C98.7234 70.5917 98.8545 70.8086 98.9712 71.0333C99.0899 71.2305 99.1983 71.4337 99.2959 71.6421L99.4177 71.9803C99.5414 72.3827 99.6319 72.7944 99.6883 73.2116C99.6817 73.3062 99.6817 73.4011 99.6883 73.4957C99.6883 73.5904 99.6883 73.6986 99.6883 73.7934V74.4428V74.9434C99.6883 74.9434 99.6883 75.011 99.6883 75.0787C99.6883 75.241 99.6206 75.4034 99.58 75.5793C99.5394 75.7552 99.5259 76.1069 99.4583 76.337Z" fill="#FFB800"/>
</svg>
