<svg width="108" height="50" viewBox="0 0 108 50" fill="none" xmlns="http://www.w3.org/2000/svg">
<path fill-rule="evenodd" clip-rule="evenodd" d="M107.738 44.8276C107.54 43.9114 107.16 43.0442 106.621 42.2773C106.082 41.5104 105.395 40.8594 104.6 40.3627C103.763 39.823 102.88 39.3583 101.961 38.9739C101.079 38.592 100.204 38.2032 99.3363 37.7935C95.828 36.1387 92.4176 34.284 89.1219 32.2384C88.3025 31.7245 87.4901 31.2107 86.6846 30.676L85.6083 29.9816L84.3792 29.1692C82.796 28.0582 81.2452 26.9009 79.7268 25.6973C78.2131 24.5029 76.7271 23.2669 75.2828 21.9893C74.5467 21.3435 73.8107 20.6908 73.0885 20.0311C72.3663 19.3714 71.6997 18.6979 70.9567 18.0729L70.6859 17.8368C70.7061 17.7807 70.7061 17.7194 70.6859 17.6632C71.5935 16.7824 72.2379 15.6662 72.5469 14.4398C72.856 13.2134 72.8175 11.9252 72.4358 10.7194C71.672 8.06683 69.5402 5.98368 67.1793 4.68518C64.4017 3.14364 61.1173 2.53258 58.0065 1.90764C54.8956 1.28269 51.7987 0.803564 48.667 0.470259C42.3814 -0.260555 36.0258 -0.139097 29.7728 0.831339C24.3896 1.71317 19.187 3.47003 14.3713 6.03228C9.67332 8.43882 5.54978 11.8305 2.28204 15.9759C2.08761 16.2397 1.90707 16.5175 1.71959 16.7883C1.62397 16.9381 1.54702 17.099 1.49044 17.2674C1.35851 17.4688 1.24046 17.6702 1.12242 17.8854C0.508787 19.0634 0.137901 20.3526 0.0317438 21.6766C-0.0744133 23.0006 0.0863197 24.3324 0.504415 25.5931C1.36453 28.1921 3.01543 30.4572 5.22623 32.0717C7.77717 33.8866 10.7286 35.0586 13.8297 35.4881C15.524 35.745 17.246 35.8006 18.9473 36.0297C19.8035 36.1357 20.6507 36.3051 21.4818 36.5366C21.8845 36.6477 22.1762 36.7449 22.5789 36.8769C22.9817 37.0088 23.4052 37.1199 23.801 37.2935C23.8693 37.3262 23.9441 37.3431 24.0198 37.3431C24.0955 37.3431 24.1702 37.3262 24.2385 37.2935C24.5857 37.4463 24.9329 37.5921 25.3009 37.7379C26.5439 38.2518 27.8076 38.717 29.0645 39.1822C31.6198 40.1081 34.1937 40.9737 36.786 41.7792C41.8921 43.3578 47.0791 44.7095 52.3472 45.8344C57.6384 46.9663 62.9296 47.9176 68.2764 48.5425C71.6372 48.9592 75.005 49.2902 78.3797 49.5355C78.7023 49.6396 79.045 49.6658 79.3796 49.6119C81.0415 49.723 82.7011 49.8156 84.3584 49.8897C87.0526 50.0077 89.7399 50.0077 92.4341 49.9938C93.7742 49.9938 95.1214 49.9174 96.4615 49.8758C97.8017 49.8341 99.1557 49.8063 100.496 49.7022L101.281 49.6397C101.587 49.7573 101.906 49.8366 102.232 49.8758C102.426 49.8758 102.628 49.9174 102.829 49.9313H102.989H103.176H103.468C104.31 49.8797 105.126 49.6197 105.843 49.1744C106.555 48.7161 107.114 48.0554 107.448 47.2772C107.782 46.499 107.876 45.6387 107.717 44.8068L107.738 44.8276ZM40.9732 41.2237C40.9603 41.1985 40.9412 41.177 40.9176 41.1612C40.2232 40.7168 39.4039 40.3974 38.6539 40.0086C37.904 39.6197 37.1332 39.1822 36.4041 38.717C35.9389 38.4184 35.4806 38.1059 35.0154 37.7865L35.3834 37.9323C38.1609 39.0156 40.9385 39.9669 43.8202 40.8071C44.1465 40.9876 44.4729 41.1682 44.8062 41.3348C46.1058 42.0314 47.5148 42.5011 48.9725 42.7236C49.1808 42.7236 49.3127 42.4528 49.0975 42.3556L48.0281 41.9112C48.8059 42.1056 49.5836 42.3 50.3613 42.4806C51.2848 42.6958 52.2153 42.9041 53.1388 43.0986C54.1205 43.7295 55.1384 44.3021 56.1872 44.8137L54.6526 44.5082C50.0557 43.5638 45.4936 42.425 40.9732 41.189V41.2237ZM81.6642 48.1676L80.6642 47.6746L77.8867 46.2858C79.1921 46.3969 80.5045 46.4872 81.81 46.5566L84.7333 47.7232C85.2819 47.9454 85.8374 48.1259 86.3999 48.3203L86.6429 48.4037H86.386C84.8028 48.3412 83.2265 48.2509 81.6433 48.1537L81.6642 48.1676ZM87.9136 48.4801C87.5039 48.2717 87.0804 48.0843 86.6637 47.8968C86.0943 47.6329 85.5388 47.376 84.9625 47.1468L83.7404 46.6538C84.525 46.6538 85.3166 46.6955 86.1082 46.6955H87.497C87.8025 46.883 88.115 47.0566 88.4414 47.2163C88.7507 47.3722 89.0683 47.5112 89.3927 47.6329C89.675 47.7849 89.9999 47.8387 90.3162 47.7857C90.3404 47.7764 90.3622 47.7618 90.38 47.7431C90.3979 47.7243 90.4113 47.7017 90.4192 47.6771C90.4272 47.6525 90.4296 47.6264 90.4262 47.6007C90.4228 47.575 90.4137 47.5504 90.3995 47.5287C90.1931 47.3229 89.9334 47.1786 89.6496 47.1121C89.351 46.9871 89.0455 46.8621 88.7469 46.7163L88.6497 46.6677C89.4968 46.6677 90.344 46.6191 91.1911 46.5774C91.9644 47.1303 92.7689 47.638 93.6006 48.0981C93.9964 48.3134 94.3992 48.5009 94.8158 48.6814H94.4408C92.2813 48.6398 90.1218 48.5703 87.9622 48.487L87.9136 48.4801ZM106.245 46.2441C106.175 46.5304 106.047 46.7996 105.87 47.0357C105.815 47.0982 105.759 47.1677 105.704 47.2232L105.6 47.3343H105.558L105.447 47.4246L105.204 47.5843L105.023 47.7023L104.891 47.7787H104.857L104.718 47.8412L104.44 47.9454C104.287 48.0009 104.128 48.0426 103.968 48.0843H103.864L103.558 48.1329C103.203 48.1988 102.843 48.2406 102.482 48.2579H102.065H101.718H101.524C101.387 48.2393 101.248 48.2618 101.125 48.3224C101.001 48.383 100.898 48.4789 100.829 48.5981C99.2946 48.5981 97.767 48.5981 96.2324 48.5981C96.0171 48.5009 95.8018 48.4106 95.5866 48.3065C95.045 48.0565 94.5242 47.7718 94.0034 47.494C93.4826 47.2163 92.8021 46.7996 92.2258 46.4247C93.5775 46.346 94.9316 46.2441 96.2879 46.1191C97.0602 46.6008 97.8654 47.0277 98.6974 47.3968C99.121 47.5774 99.5446 47.7579 99.982 47.9107C100.158 48.0152 100.356 48.0793 100.56 48.0985C100.764 48.1177 100.97 48.0915 101.162 48.0218C101.204 47.9948 101.232 47.9527 101.243 47.9047C101.253 47.8566 101.244 47.8064 101.218 47.7648C101.024 47.3968 100.524 47.3135 100.163 47.1816C99.8015 47.0496 99.3293 46.876 98.9266 46.7024C98.4127 46.4872 97.9128 46.2511 97.4267 46.008C98.2322 45.9178 99.0377 45.7997 99.8432 45.6956H99.9959C99.9503 45.7439 99.9205 45.8051 99.9106 45.8709C99.9006 45.9367 99.911 46.0039 99.9404 46.0636C100.007 46.2246 100.056 46.3922 100.086 46.5636C100.135 46.7788 100.496 46.7024 100.468 46.4802C100.468 46.4177 100.468 46.3552 100.433 46.2927C100.913 46.4426 101.378 46.6355 101.822 46.8691C102.086 47.0218 102.343 47.1954 102.593 47.369C102.847 47.5751 103.121 47.7543 103.412 47.9037C103.448 47.9204 103.487 47.9264 103.526 47.921C103.565 47.9155 103.601 47.8989 103.631 47.8731C103.66 47.8473 103.682 47.8135 103.692 47.7757C103.703 47.738 103.702 47.698 103.69 47.6607C103.353 47.0406 102.817 46.5515 102.169 46.2719C101.589 45.9449 100.949 45.7371 100.288 45.6609L101.336 45.515C101.828 45.4966 102.306 45.3506 102.725 45.0915C102.77 45.066 102.807 45.0291 102.833 44.9846C102.859 44.9401 102.872 44.8895 102.872 44.838C102.872 44.7865 102.859 44.7359 102.833 44.6914C102.807 44.6469 102.77 44.61 102.725 44.5846C102.326 44.4538 101.9 44.4299 101.489 44.5151L100.1 44.6957C99.2113 44.8137 98.3155 44.904 97.4198 44.9734C95.663 45.1123 93.9478 45.2928 92.1563 45.397C90.3648 45.5011 88.7816 45.5567 87.0943 45.5984C87.0525 45.5725 87.0044 45.5589 86.9554 45.5589C86.9063 45.5589 86.8582 45.5725 86.8165 45.5984C85.0713 45.6354 83.333 45.6354 81.6017 45.5984C79.588 45.5984 77.5673 45.515 75.5605 45.39C75.1786 45.39 75.0467 45.9525 75.4425 45.9942C76.1924 46.0705 76.9423 46.1469 77.6923 46.2094C77.641 46.2346 77.5978 46.2736 77.5676 46.3221C77.5374 46.3706 77.5213 46.4266 77.5213 46.4837C77.5213 46.5408 77.5374 46.5968 77.5676 46.6453C77.5978 46.6938 77.641 46.7328 77.6923 46.758L80.1435 47.9801C78.5742 47.869 77.0118 47.744 75.4494 47.5912C75.1786 47.4454 74.9147 47.2996 74.6509 47.1399C74.387 46.9802 74.1717 47.2232 74.1717 47.4593C72.9566 47.3343 71.7414 47.1954 70.5193 47.0427C66.5428 46.5427 62.5801 45.9293 58.6314 45.2026C58.0273 44.9456 57.4232 44.6748 56.8399 44.3762C56.2566 44.0777 55.59 43.7305 54.9859 43.3694C55.6039 43.4735 56.2219 43.5777 56.8468 43.6471C57.5968 43.7374 58.3398 43.7721 59.0966 43.793C59.4369 43.793 59.4091 43.3208 59.0966 43.2374C57.8467 42.8625 56.5969 42.5431 55.3192 42.3C54.0415 42.057 52.7777 41.7862 51.514 41.5015C48.9864 40.9321 46.4773 40.284 43.9868 39.5572L42.7647 39.1892C42.3758 38.9253 41.9939 38.6476 41.6259 38.3629C41.5717 38.3204 41.5064 38.2944 41.4378 38.2878C41.3692 38.2813 41.3002 38.2944 41.2389 38.3258C41.1776 38.3572 41.1265 38.4055 41.0917 38.465C41.057 38.5244 41.0399 38.5926 41.0426 38.6614C38.1725 37.8328 35.3487 36.8746 32.5711 35.7867L32.3281 35.5645C32.3087 35.5445 32.2855 35.5287 32.2598 35.5179C32.2342 35.507 32.2066 35.5015 32.1788 35.5015C32.151 35.5015 32.1234 35.507 32.0978 35.5179C32.0721 35.5287 32.0489 35.5445 32.0295 35.5645C31.1546 35.2104 30.2797 34.8701 29.4117 34.4812C26.935 33.435 24.4885 32.3333 22.072 31.176C22.4943 30.7872 22.8653 30.3462 23.1761 29.8636C23.1217 30.0009 23.1002 30.1491 23.1135 30.2962C23.1268 30.4434 23.1744 30.5853 23.2525 30.7107C23.2927 30.7697 23.3512 30.8139 23.4189 30.8364C23.4866 30.859 23.5599 30.8588 23.6274 30.8357C24.1343 30.6968 24.2593 30.183 24.4538 29.7525C24.6482 29.322 24.8496 28.8984 25.0787 28.4818C25.537 27.6693 26.0578 26.8916 26.5716 26.1139C26.7383 25.8709 26.3633 25.5584 26.1411 25.7389C25.3705 26.3748 24.7091 27.1325 24.183 27.9818C24.0649 28.1623 23.9538 28.3429 23.8427 28.5304C24.016 28.0633 24.1393 27.5791 24.2107 27.086C24.6968 23.4197 22.6275 20.0658 19.8639 17.8299C19.0213 17.1316 18.1172 16.5111 17.1627 15.9759C16.1836 15.4454 15.1698 14.9814 14.1283 14.5871C14.0892 14.5757 14.0474 14.5784 14.0102 14.5947C13.9729 14.6109 13.9426 14.6398 13.9244 14.6761C13.9062 14.7125 13.9014 14.7541 13.9107 14.7936C13.92 14.8332 13.943 14.8682 13.9755 14.8926C15.599 15.7226 17.1546 16.6792 18.6279 17.7535C19.9991 18.764 21.1458 20.0479 21.9956 21.524C22.7899 22.8945 23.2001 24.4536 23.183 26.0375C23.1327 27.4627 22.582 28.8247 21.6276 29.8844C21.124 30.4713 20.5015 30.9447 19.8014 31.2732C19.0532 31.5297 18.2873 31.7316 17.5099 31.8773C17.4336 31.9061 17.3672 31.9563 17.3187 32.0218C17.2703 32.0874 17.2417 32.1656 17.2366 32.247C17.2315 32.3284 17.2499 32.4095 17.2898 32.4807C17.3297 32.5518 17.3892 32.6099 17.4613 32.6481C18.251 32.9072 19.1083 32.8676 19.8708 32.537C20.5546 32.2764 21.1887 31.9006 21.7457 31.426L21.8637 31.4954C21.82 31.493 21.7765 31.5032 21.7384 31.5248C21.7003 31.5464 21.6691 31.5784 21.6487 31.6172C21.6282 31.6559 21.6193 31.6997 21.6229 31.7433C21.6266 31.7869 21.6427 31.8286 21.6693 31.8634C22.2887 32.676 23.0019 33.4125 23.7941 34.0577C24.1799 34.3827 24.5833 34.6864 25.0023 34.9673C25.2176 35.1062 25.4328 35.2381 25.655 35.3562C25.8773 35.4742 26.0856 35.62 26.3008 35.5159C26.3355 35.5026 26.3649 35.4786 26.3849 35.4474C26.4049 35.4161 26.4144 35.3793 26.4119 35.3423C26.3703 35.1201 26.2106 35.0437 26.0231 34.9395C25.8356 34.8354 25.5787 34.6965 25.3634 34.5646C24.9486 34.3116 24.5497 34.0333 24.1691 33.7313C23.3942 33.1224 22.6949 32.423 22.0859 31.6482C23.0164 32.1828 23.9607 32.6967 24.9051 33.1966C24.877 33.2442 24.8664 33.3002 24.8753 33.3547C24.8842 33.4093 24.9119 33.459 24.9537 33.4952C26.3083 34.7268 27.77 35.8353 29.3214 36.8074C30.0991 37.2935 30.8977 37.7449 31.7101 38.1545C32.1059 38.349 32.5086 38.5365 32.9114 38.7101C33.3249 38.914 33.7677 39.0522 34.2238 39.1197C34.3626 39.1197 34.4807 38.96 34.3557 38.8628C33.9962 38.6137 33.6094 38.4064 33.203 38.2448L31.9462 37.6476C31.1546 37.2518 30.3838 36.8283 29.6269 36.3769C28.3714 35.6125 27.1759 34.7536 26.0508 33.8077C26.7591 34.1688 27.4743 34.516 28.1965 34.8493C29.9093 35.6501 31.6383 36.4093 33.3836 37.1269C34.2691 37.8499 35.1965 38.52 36.1611 39.1336C36.8971 39.6128 37.654 40.0641 38.4387 40.4738L38.5151 40.5155C36.1333 39.8211 33.7724 39.0642 31.4184 38.3004C30.1547 37.893 28.8955 37.4694 27.641 37.0296C26.3911 36.5991 25.1273 36.113 23.8496 35.7728L23.4955 35.6895C23.2103 35.4709 22.9003 35.2868 22.572 35.1409C21.8717 34.8206 21.1348 34.5874 20.3777 34.4465C19.8222 34.3354 19.2667 34.259 18.7112 34.1965C18.6961 34.1477 18.6641 34.1059 18.6209 34.0785C17.6744 33.627 16.6976 33.2418 15.6976 32.9258C14.7185 32.5509 13.7533 32.1342 12.802 31.669C10.9077 30.7626 9.09556 29.6939 7.38577 28.4748C6.41363 27.7573 5.48779 26.9981 4.60823 26.1972C4.33048 25.9473 3.96245 26.3778 4.22632 26.6278C7.40112 29.5879 11.0914 31.9413 15.1143 33.5716C15.5379 33.7383 15.9753 33.9188 16.4197 34.0716L15.9198 34.0299C13.0207 33.8401 10.1971 33.0252 7.64269 31.6412C6.48223 30.9968 5.42824 30.177 4.51796 29.2109C3.73039 28.3437 3.06674 27.3715 2.54591 26.3222C2.28483 25.7553 2.07115 25.1677 1.90707 24.5654C1.86503 24.4308 1.83026 24.2941 1.80292 24.1557V23.996C1.80292 23.9544 1.80292 23.9127 1.80292 23.871C1.74418 23.5378 1.70246 23.2017 1.67793 22.8642C1.62514 22.2997 1.63912 21.731 1.71959 21.1699C1.76125 20.913 1.80986 20.6491 1.87235 20.3922C1.93485 20.1353 1.94874 20.0797 1.99734 19.9269C2.04595 19.7742 2.03206 19.8297 2.04595 19.7742C2.04595 19.7256 2.08067 19.677 2.1015 19.6214C2.31035 19.0035 2.58506 18.4099 2.92088 17.8507V17.816L3.07364 17.5869V17.5521C3.16391 17.4202 3.26112 17.2952 3.35834 17.1702C3.55277 16.9202 3.76108 16.6772 3.9694 16.4758C4.3889 16.0085 4.86741 15.5977 5.39289 15.2537C5.92465 14.8899 6.50729 14.6068 7.12191 14.4135C7.18638 14.3936 7.24108 14.3503 7.27529 14.2921C7.3095 14.2339 7.32076 14.1651 7.30686 14.099C7.29295 14.033 7.25489 13.9745 7.20013 13.9351C7.14537 13.8956 7.07785 13.878 7.0108 13.8858C6.65667 13.9274 6.31642 13.9761 5.9484 14.0455C6.35808 13.6566 6.76777 13.2747 7.19829 12.8998C9.07625 11.2534 11.106 9.78861 13.2603 8.52513C17.6789 5.94351 22.4859 4.09339 27.4952 3.04643C33.2973 1.86474 39.235 1.49086 45.1395 1.93541C48.1948 2.14373 51.2362 2.5187 54.2498 3.0256C57.2699 3.47358 60.2575 4.11842 63.1935 4.95599C65.7141 5.72676 68.1514 6.99748 69.6582 9.1223C70.3449 10.0551 70.7563 11.1617 70.8456 12.3165C70.8972 12.8751 70.855 13.4384 70.7206 13.983C70.7206 14.1288 70.6443 14.2677 70.6095 14.4135C70.6065 14.4435 70.6065 14.4738 70.6095 14.5038C70.5903 14.5466 70.5741 14.5907 70.5609 14.6357C70.4438 14.9372 70.3093 15.2316 70.1582 15.5176C70.046 15.7345 69.9085 15.9373 69.7485 16.1217C69.587 16.3135 69.4131 16.4944 69.2277 16.6633C69.1414 16.7349 69.0665 16.8192 69.0055 16.9133C68.0334 16.6008 67.0196 16.3925 66.0266 16.1773C64.5267 15.8439 63.013 15.5731 61.4923 15.3509C58.3934 14.9112 55.2687 14.6792 52.1389 14.6565C46.8546 14.6079 41.4245 15.0176 36.4389 16.8786C35.0799 17.3745 33.7728 18.0025 32.5364 18.7534C31.9331 19.1076 31.3575 19.5068 30.8143 19.9478C30.2771 20.4167 29.7779 20.9275 29.3214 21.4754C29.2714 21.5281 29.2429 21.5975 29.2414 21.6701C29.2399 21.7427 29.2655 21.8133 29.3133 21.868C29.361 21.9227 29.4275 21.9576 29.4996 21.9659C29.5717 21.9742 29.6444 21.9553 29.7033 21.9129C30.2033 21.5587 30.7379 21.2185 31.2587 20.9268C31.7795 20.6352 32.2864 20.2325 32.8211 19.9478C33.8607 19.3388 34.9475 18.814 36.0708 18.3785C38.3486 17.4941 40.7204 16.8743 43.1397 16.5314C45.7758 16.1589 48.435 15.9732 51.0973 15.9759C53.6249 15.9665 56.1513 16.0894 58.6661 16.3439H58.6106L58.4786 16.3856C58.3792 16.4207 58.2971 16.4928 58.2495 16.5869C58.211 16.6875 58.211 16.7988 58.2495 16.8994C58.2911 16.9949 58.3615 17.075 58.4509 17.1286H58.555C58.6229 17.1494 58.6955 17.1494 58.7633 17.1286L58.8953 17.0938C58.9451 17.0775 58.991 17.0512 59.0304 17.0166C59.0698 16.982 59.1018 16.9397 59.1244 16.8925C59.1464 16.8433 59.1578 16.7901 59.1578 16.7362C59.1578 16.6824 59.1464 16.6291 59.1244 16.58C59.108 16.5302 59.0817 16.4842 59.0471 16.4449C59.0125 16.4055 58.9703 16.3735 58.923 16.3508L60.1382 16.4828L60.4299 16.5244C60.4009 16.5613 60.3795 16.6035 60.3669 16.6486C60.3543 16.6938 60.3509 16.741 60.3567 16.7875C60.3625 16.834 60.3775 16.8789 60.4008 16.9195C60.424 16.9602 60.4552 16.9959 60.4924 17.0244C60.9414 17.3267 61.4328 17.5607 61.9506 17.7188C62.4013 17.8852 62.8059 18.1566 63.131 18.5104C63.6032 19.1006 63.756 20.0658 63.006 20.4963C62.5599 20.7158 62.0725 20.8388 61.5756 20.8574C61.0009 20.9199 60.4212 20.9199 59.8466 20.8574C58.7018 20.7914 57.6034 20.3825 56.6941 19.6839C56.4854 19.5092 56.3222 19.2865 56.2182 19.035C56.1142 18.7836 56.0726 18.5106 56.0969 18.2396C56.1282 17.9867 56.2549 17.7554 56.4511 17.5928C56.6472 17.4302 56.8981 17.3486 57.1524 17.3647C57.2251 17.3785 57.3004 17.3628 57.3616 17.3211C57.4228 17.2795 57.4649 17.2152 57.4787 17.1424C57.4925 17.0697 57.4769 16.9945 57.4352 16.9332C57.3935 16.872 57.3293 16.8299 57.2565 16.8161C56.9714 16.7763 56.6808 16.811 56.4131 16.9168C56.1454 17.0227 55.9096 17.1961 55.7289 17.4202C55.5435 17.6644 55.4201 17.9499 55.3693 18.2523C55.3185 18.5546 55.3418 18.8648 55.4372 19.1562C55.8261 20.5449 57.3329 21.2393 58.6175 21.6073C60.0365 22.024 61.5454 22.024 62.9644 21.6073C63.2664 21.5184 63.5463 21.3666 63.7856 21.162C64.0249 20.9574 64.2183 20.7045 64.3531 20.4199C64.5716 19.8475 64.5716 19.2147 64.3531 18.6423C64.0862 17.9599 63.5969 17.3874 62.9644 17.0175L62.638 16.8369C63.4851 16.9619 64.3323 17.0938 65.1795 17.2397C66.4016 17.4549 67.6167 17.7535 68.8389 17.934C68.6478 17.9682 68.4712 18.0584 68.3314 18.1932C68.1917 18.3279 68.0952 18.5012 68.0542 18.6909C68.0056 18.8715 68.207 19.0034 68.3667 18.9548C68.5967 18.8728 68.8431 18.8476 69.0849 18.8815C69.3268 18.9153 69.5568 19.0072 69.7554 19.1492C70.0861 19.4546 70.3141 19.8548 70.4082 20.295L69.4638 20.3297L68.7 20.3713H68.3667H68.1514C68.1335 20.1402 68.1335 19.9081 68.1514 19.677C68.1514 19.4131 68.2139 19.0798 68.0056 18.8854C67.9803 18.8633 67.9496 18.8485 67.9166 18.8424C67.8836 18.8363 67.8496 18.8391 67.8181 18.8506C67.4015 18.9895 67.3529 19.7395 67.3182 20.1075C67.2834 20.4755 67.2696 21.156 67.8598 21.274C68.1231 21.2984 68.3881 21.2984 68.6514 21.274H69.443L71.0956 21.2115C71.1612 21.2074 71.2252 21.1897 71.2837 21.1598C71.3422 21.1298 71.3938 21.0881 71.4355 21.0373C71.4772 20.9865 71.508 20.9277 71.526 20.8645C71.5439 20.8013 71.5487 20.7351 71.54 20.6699C73.3035 22.4604 75.1576 24.1593 77.0951 25.7598C79.9605 28.2301 82.9702 30.5279 86.1082 32.6411C89.2484 34.7099 92.5059 36.5949 95.8643 38.2865C97.5239 39.1267 99.2113 39.9113 100.913 40.6543C102.614 41.3973 104.197 42.0431 105.412 43.3347C105.866 43.8719 106.166 44.5222 106.28 45.2164C106.336 45.558 106.324 45.9072 106.245 46.2441Z" fill="#FFB800"/>
</svg>
