<svg width="157" height="72" viewBox="0 0 157 72" fill="none" xmlns="http://www.w3.org/2000/svg">
<path fill-rule="evenodd" clip-rule="evenodd" d="M155.519 14.2863C154.828 12.7315 153.746 11.382 152.379 10.3694C149.704 8.31209 146.229 7.50881 142.984 6.81575C135.895 5.30097 128.621 4.84121 121.398 5.45135C119.332 5.63428 117.284 5.92328 115.255 6.31836C114.256 6.45933 113.333 6.70172 112.388 6.93694C111.896 7.05737 111.406 7.19778 110.939 7.35534C110.676 7.44688 110.42 7.5546 110.17 7.67788C109.379 7.26998 108.561 6.88629 107.732 6.57533C104.268 5.22131 100.554 4.62362 96.8393 4.82233C95.7808 4.89019 94.729 5.03865 93.693 5.26641C93.06 5.39664 92.4382 5.57637 91.8333 5.80395C91.4928 5.51001 91.1153 5.26191 90.7104 5.06596C87.291 3.35833 83.3427 3.96654 79.731 4.57817C79.6299 4.59617 79.5357 4.64192 79.459 4.7103C79.3823 4.77868 79.3261 4.86702 79.2967 4.96546C79.1885 5.00005 79.0885 5.0563 79.0027 5.13078C78.917 5.20526 78.8473 5.29641 78.7979 5.39868C78.7484 5.50096 78.7204 5.61222 78.7153 5.72569C78.7102 5.83916 78.7283 5.95248 78.7685 6.05874C78.8983 6.37272 79.0839 6.66061 79.3163 6.90846C79.6384 7.20707 80.0174 7.43768 80.4307 7.58652C81.1515 7.76307 81.8841 7.88778 82.6227 7.95968C82.8035 7.99403 82.9809 8.04397 83.1531 8.10893L83.3526 8.22339C83.3979 8.25432 83.4404 8.28924 83.4794 8.32775L83.5648 8.42775C83.565 8.45139 83.5683 8.47491 83.5747 8.49767L83.5818 8.54761C83.5818 8.54761 83.5818 8.54761 83.5888 8.59755L83.523 8.70871C83.523 8.70871 83.4416 8.78133 83.3701 8.85253L83.2216 8.955L82.9261 9.09858L82.8561 9.10845C82.7563 9.12255 82.6464 9.13806 82.555 9.21208L82.3452 9.24169C81.9909 8.68046 81.1068 8.47925 80.5308 8.29569C79.8406 8.05639 79.1332 7.87016 78.4147 7.73863C77.7035 7.60112 76.9833 7.51552 76.2596 7.4825C75.6848 7.44684 75.108 7.50759 74.5532 7.66224C74.2167 7.50635 73.8585 7.40234 73.4909 7.35374C73.0972 7.31778 72.7006 7.37376 72.3323 7.51727C72.2556 7.48369 72.1734 7.46422 72.0898 7.4598C71.4528 7.42695 70.8285 7.64686 70.3527 8.07173C69.0191 7.79129 67.6659 7.61445 66.305 7.54281C64.9144 7.50314 63.5227 7.54987 62.1378 7.68274C59.7902 7.90496 57.4628 8.30497 55.1757 8.87933C55.2917 8.22523 55.3311 7.55984 55.2931 6.89661C55.2323 5.91081 55.0401 4.93754 54.7216 4.0026C54.9455 3.90191 55.15 3.76271 55.3258 3.59134C55.3691 3.55503 55.4024 3.50829 55.4226 3.45553C55.4429 3.40277 55.4494 3.34572 55.4415 3.28977C55.4336 3.23381 55.4116 3.18079 55.3775 3.13569C55.3435 3.0906 55.2985 3.05491 55.2468 3.032C54.723 2.92274 54.1809 2.93648 53.6633 3.07213C53.1437 3.17941 52.6332 3.3264 52.1361 3.5118C51.1304 3.85596 50.2025 4.39544 49.4059 5.09925C48.7513 5.68724 48.241 6.4181 47.9144 7.23514C47.5787 6.7712 47.2135 6.32934 46.821 5.91232C44.9706 4.18362 42.8367 2.78596 40.5126 1.7804C39.8469 1.46686 39.1755 1.1847 38.4869 0.925338C38.1519 0.789253 37.8183 0.663155 37.4775 0.558443C37.1152 0.406309 36.7268 0.326191 36.3338 0.322566C36.2867 0.301121 36.2344 0.293577 36.1831 0.300818C36.1317 0.30806 36.0836 0.329787 36.0442 0.363449C35.0271 1.18617 34.3162 2.32704 34.0259 3.60262C33.6679 4.86854 33.5334 6.18718 33.6284 7.4993C33.8214 10.1247 34.9507 12.5935 36.8108 14.4562C37.6263 15.2714 38.5896 15.9237 39.6493 16.3783L39.3636 16.5918C35.497 19.5014 32.1398 23.0321 29.4286 27.0403C29.3309 27.0682 29.2374 27.1088 29.1502 27.1611C25.5642 29.156 21.8681 30.9463 18.0797 32.5235C14.4351 34.0342 10.9987 36.005 7.85432 38.388C5.02358 40.5979 2.83407 43.5235 1.51188 46.8625C0.242964 50.1336 0.263886 53.7647 1.57041 57.021C2.29273 58.7635 3.35394 60.345 4.69245 61.674C5.57378 62.5828 6.59617 63.3433 7.72009 63.9259C8.56691 64.642 9.45667 65.3057 10.3844 65.9133C12.6859 67.4305 15.1853 68.6238 17.8122 69.4594C23.7526 71.2419 29.9792 71.8708 36.156 71.3119C42.9027 70.8197 49.6144 69.9302 56.2564 68.6481C62.9989 67.4112 69.692 65.896 76.344 64.2338C82.996 62.5717 89.6637 60.8767 96.1467 58.7392L96.6605 58.5547L97.13 58.4884C98.4285 58.3051 99.7057 58.0433 100.989 57.7502C103.525 57.1682 106.011 56.4505 108.479 55.6743C113.49 54.0035 118.367 51.9529 123.067 49.5404C127.686 47.1658 132.117 44.4425 136.322 41.3942C140.602 38.3034 144.64 34.8898 148.399 31.1833C150.24 29.3547 152.03 27.4618 153.707 25.4831C155.384 23.5045 157.231 20.7172 156.397 17.8399C156.374 17.6701 156.288 17.4988 156.213 17.326C156.138 17.1533 156.179 17.0863 156.162 16.9664C156.106 16.0726 155.893 15.1957 155.532 14.3762L155.519 14.2863ZM153.732 17.2177C153.705 17.0279 153.724 17.1578 153.732 17.2177V17.2177ZM93.5633 6.87392C94.4323 6.75127 95.3126 6.70852 96.1928 6.66578C97.9788 6.57029 99.7698 6.65887 101.538 6.93012C104.949 7.50867 108.205 8.78298 111.102 10.6738C111.515 10.9313 111.912 11.2115 112.312 11.5218C112.712 11.832 113.043 12.0808 113.332 12.3252C113.621 12.5696 114.027 12.9198 114.352 13.2C113.408 13.5162 112.537 14.0166 111.789 14.6721C111.302 14.7666 110.844 14.9736 110.452 15.2766C110.059 15.5796 109.743 15.9703 109.529 16.4173C109.276 16.9454 109.149 17.5246 109.157 18.11C108.889 17.8014 108.611 17.4942 108.317 17.2099C106.972 15.9628 105.376 15.0175 103.636 14.4373C103.166 14.2796 102.971 14.9897 103.414 15.1716C104.965 15.8384 106.358 16.8257 107.5 18.0687C108.065 18.6498 108.57 19.2847 109.011 19.9643C109.388 20.7167 109.831 21.4348 110.333 22.1106C110.386 22.1663 110.455 22.2049 110.53 22.2218C110.606 22.2386 110.684 22.2329 110.756 22.2053C110.829 22.1778 110.891 22.1296 110.936 22.0668C110.981 22.0039 111.006 21.9293 111.009 21.8521C111.005 21.6801 110.981 21.5091 110.937 21.3427C111.517 21.7731 112.173 22.0885 112.872 22.2718C114.266 22.5896 115.716 22.57 117.101 22.2147C117.521 22.1555 117.939 22.015 118.36 21.8944C118.419 22.3139 118.37 22.7589 118.348 23.1797C118.32 23.9219 118.209 24.6587 118.016 25.3761C117.597 26.9013 116.886 28.3305 115.921 29.5837C113.648 32.2994 110.61 34.2685 107.203 35.2354C106.171 35.5746 105.145 35.8824 104.108 36.1817C103.057 36.4555 102.022 36.7886 101.009 37.1793C100.749 37.2873 100.878 37.6969 101.084 37.7087C102.096 37.7109 103.106 37.6195 104.101 37.4356C104.471 37.3834 104.84 37.3313 105.192 37.2206C104.866 37.5111 104.529 37.793 104.189 38.0549C101.424 40.1168 98.2131 41.4984 94.8152 42.0877C93.5977 42.2849 92.3643 42.3669 91.1314 42.3326L91.553 41.8554C92.0634 41.2583 92.5325 40.627 92.9571 39.9661C93.1759 39.6199 93.3595 39.2527 93.5053 38.87C93.7013 38.5265 93.8759 38.1759 94.0435 37.7753C94.5133 36.7815 94.9308 35.7636 95.294 34.726C96.0123 32.6544 96.4954 30.5085 96.7342 28.3289C97.0488 25.4979 96.7555 22.6322 95.8738 19.9236C96.4192 20.5394 96.9445 21.158 97.4613 21.788C98.2677 22.6899 98.9247 23.7148 99.4077 24.8241C100.08 26.6261 100.063 28.6131 99.3598 30.4033C98.9714 31.4768 98.2183 32.2758 97.82 33.2795C97.7312 33.5161 97.9988 33.8247 98.2401 33.7295C99.2208 33.2502 99.9811 32.4139 100.365 31.3921C100.819 30.3936 101.086 29.32 101.151 28.2251C101.197 27.0546 101.008 25.8868 100.596 24.7903C100.185 23.6938 99.5575 22.6907 98.7522 21.8401C97.6972 20.6443 96.4707 19.6051 95.3455 18.4905L95.2757 18.429C95.0057 17.8159 94.6905 17.2237 94.3329 16.6571C94.0367 16.1733 93.7156 15.7052 93.3709 15.2546L93.6874 15.4035C94.4386 15.7457 95.1726 16.1107 95.8753 16.47L96.4997 16.7791C96.6618 16.8886 96.8352 16.9803 97.017 17.0525C98.1063 17.6137 99.1583 18.2445 100.167 18.9408C102.808 20.6683 104.864 23.1556 106.063 26.075C106.359 26.8834 106.563 27.7226 106.671 28.5767C106.792 29.4357 106.623 30.3256 106.752 31.1732C106.774 31.249 106.816 31.3171 106.875 31.3694C106.934 31.4218 107.007 31.4563 107.084 31.4689C107.162 31.4815 107.242 31.4716 107.314 31.4404C107.386 31.4092 107.448 31.358 107.493 31.2928C107.791 30.5262 107.885 29.6948 107.763 28.881C107.702 28.0767 107.556 27.2812 107.327 26.5079C106.841 24.9321 106.084 23.4532 105.09 22.1375C103.535 20.1303 101.602 18.4476 99.3991 17.1849C99.8598 17.0714 100.287 16.8511 100.647 16.542C101.007 16.2328 101.289 15.8434 101.471 15.4052C101.705 14.8215 101.715 14.1718 101.498 13.5815C101.281 12.9912 100.853 12.5022 100.296 12.2091C99.6265 11.8824 98.8687 11.782 98.1369 11.923C97.6991 11.9866 97.2772 12.1325 96.8937 12.3532C96.7427 12.4393 96.6035 12.5446 96.4795 12.6664C96.4254 12.636 96.3629 12.6242 96.3015 12.6329C96.2402 12.6415 96.1834 12.6701 96.1399 12.7143C95.9232 12.8471 95.7362 13.0231 95.5903 13.2311C95.4445 13.4392 95.3429 13.6751 95.2919 13.924C95.2022 14.3196 95.2044 14.7306 95.2984 15.1252L94.4973 14.79C94.0639 14.6067 93.6291 14.4134 93.1786 14.2528C92.7281 14.0923 92.5712 14.0635 92.2646 13.9845C91.8108 13.5204 91.3116 13.1028 90.7745 12.7381C91.126 12.4555 91.4499 12.1403 91.7419 11.7967C92.2587 11.9626 92.7874 12.0889 93.3233 12.1746C93.8895 12.2882 94.7835 12.5594 95.3218 12.2593C95.3619 12.2359 95.3963 12.2038 95.4225 12.1655C95.4487 12.1271 95.466 12.0834 95.4732 12.0375C95.4804 11.9916 95.4772 11.9447 95.464 11.9002C95.4508 11.8556 95.4278 11.8146 95.3968 11.7801C94.9853 11.3186 94.0524 11.2771 93.4833 11.2148C93.1096 11.1657 92.7217 11.088 92.3295 11.0516C92.5003 10.8043 92.6473 10.5413 92.7687 10.2664C93.776 10.1853 94.7664 9.9844 95.7737 9.90336C96.9164 9.79656 98.0647 9.76037 99.2119 9.79501C101.503 9.84231 103.776 10.2072 105.966 10.8791C106.564 11.0699 107.154 11.282 107.744 11.4941C108.347 11.7574 108.982 11.9384 109.633 12.0322C109.703 12.0337 109.772 12.0144 109.831 11.9768C109.889 11.9392 109.936 11.885 109.964 11.8211C109.992 11.7572 110 11.6864 109.988 11.6177C109.976 11.5489 109.944 11.4854 109.895 11.435C109.487 11.0268 109.002 10.7039 108.468 10.4853C107.909 10.2236 107.336 9.9949 106.751 9.80055C103.361 8.69732 99.7677 8.36235 96.232 8.81995C95.145 8.94169 94.0757 9.18833 93.0453 9.55497C93.0922 9.37909 93.1282 9.20049 93.1531 9.02019C93.2634 8.31732 93.1618 7.59752 92.8613 6.95262L93.6304 6.84407L93.5633 6.87392ZM119.451 14.5381L120.023 14.6917L120.271 14.7891C120.352 14.8409 120.437 14.8868 120.525 14.9265L120.717 15.0623C120.761 15.1095 120.808 15.1538 120.858 15.1952L120.993 15.3595C121.002 15.3955 121.007 15.4323 121.009 15.4694C121.009 15.4694 121.095 15.6507 121.107 15.6593C121.121 15.7251 121.13 15.7919 121.135 15.8591C121.139 15.9263 121.148 15.9931 121.163 16.0588C121.177 16.1587 121.191 16.2586 121.205 16.3585C121.205 16.4344 121.199 16.5103 121.187 16.5853C121.178 16.5253 121.149 16.7535 121.143 16.7849C121.12 16.8893 121.09 16.9922 121.054 17.0929L120.971 17.2982L118.222 15.6487C118.162 15.6117 118.095 15.5869 118.026 15.5757C117.956 15.5645 117.885 15.5671 117.816 15.5835C117.748 15.5998 117.683 15.6294 117.626 15.6708C117.569 15.7121 117.52 15.7643 117.483 15.8244C117.446 15.8845 117.421 15.9512 117.41 16.0209C117.399 16.0906 117.401 16.1617 117.418 16.2304C117.434 16.299 117.464 16.3638 117.505 16.421C117.546 16.4782 117.599 16.5266 117.659 16.5636L120.328 18.2243C120.15 18.3829 119.959 18.5257 119.756 18.6514C119.747 18.5834 119.717 18.5201 119.67 18.47C119.254 18.0499 118.452 18.1427 117.903 18.0776C117.324 18.0048 116.751 17.8846 116.192 17.7181C115.028 17.3471 113.935 16.7814 112.96 16.045C112.505 15.7019 111.887 16.4512 112.326 16.8172C113.355 17.6763 114.54 18.3288 115.816 18.7389C116.447 18.9396 117.095 19.0834 117.751 19.1687C117.979 19.1976 118.262 19.2494 118.549 19.2599C118.337 19.3508 118.123 19.4218 117.929 19.49C117.431 19.6418 116.951 19.7808 116.428 19.8954L115.639 20.0068L115.309 20.0533L115.059 20.0886C114.798 20.1038 114.536 20.1034 114.275 20.0872C114.079 20.0783 113.884 20.0512 113.693 20.0064C113.482 19.9547 113.268 19.883 113.054 19.8113L112.994 19.8198L112.934 19.8282C112.8 19.7644 112.67 19.6907 112.546 19.6079L112.266 19.4234C112.15 19.3276 112.162 19.3362 112.266 19.4234C112.381 19.5191 112.159 19.3162 112.102 19.2733L111.874 19.0304C111.874 19 111.87 18.9697 111.861 18.9405L111.785 18.8291C111.728 18.7341 111.676 18.6359 111.631 18.535C111.631 18.535 111.517 18.2352 111.52 18.2552L111.485 18.0055L111.474 17.9256C111.474 17.9256 111.461 17.8357 111.454 17.7857C111.459 17.3959 111.555 17.0126 111.734 16.6664C111.817 16.4659 111.945 16.2874 112.109 16.1449C113.148 15.8556 114.113 15.3323 115.151 15.033C116.197 14.7379 117.279 14.5852 118.367 14.5791C118.586 14.548 118.815 14.577 119.041 14.5959L119.371 14.6207L119.579 14.6524L119.451 14.5381ZM80.7931 45.7375C79.3484 45.8935 77.8926 45.9182 76.4434 45.8115C76.7679 45.6472 77.0822 45.4633 77.3844 45.261C78.025 44.9022 78.5594 44.3804 78.9334 43.7486C79.0064 43.616 78.9426 43.3806 78.7514 43.3974C78.1806 43.4972 77.6297 43.6885 77.1199 43.9638C76.5374 44.2396 75.9805 44.5525 75.4094 44.8368C72.0654 46.5219 68.3964 47.4637 64.6542 47.5977C63.9552 47.625 63.2419 47.6238 62.5386 47.6212L61.6727 47.6212C62.1943 47.2759 62.6704 46.8665 63.0899 46.4025C63.1832 46.5197 63.3119 46.6038 63.4568 46.6421C63.6017 46.6803 63.755 46.6708 63.8941 46.6149C63.8847 46.6829 63.8942 46.7521 63.9215 46.8149C63.9489 46.8778 63.993 46.932 64.0491 46.9714C64.1052 47.0109 64.1711 47.0341 64.2395 47.0386C64.3079 47.043 64.3762 47.0286 64.437 46.9967C65.6721 46.4079 66.8033 45.622 67.7862 44.67C68.8349 43.8097 69.5767 42.6327 69.9002 41.3154C69.9321 41.0359 69.5941 40.9511 69.4099 41.0892C68.9319 41.5267 68.509 42.0208 68.1506 42.5607C67.7789 43.0308 67.3859 43.4938 66.9686 43.9296C66.2323 44.7274 65.4155 45.4469 64.5312 46.0768C65.5489 44.8341 66.2961 43.3928 66.7253 41.845C67.2429 40.1255 67.4446 38.3264 67.3205 36.535C66.9514 32.6235 65.3605 28.9275 62.7733 25.9708C61.4746 24.3551 60 22.889 58.3769 21.5996C59.0626 20.9665 59.5077 20.1152 59.6363 19.1908C59.7472 18.5155 59.656 17.8224 59.374 17.1987C59.092 16.5751 58.6319 16.0488 58.0516 15.686C57.3595 15.294 56.5572 15.1422 55.7698 15.2542C55.4271 15.3031 55.0973 15.4189 54.7992 15.5949C54.5532 15.7287 54.3427 15.919 54.1848 16.1502L54.1947 16.2202C54.1261 16.3113 54.046 16.3939 53.9874 16.4837C53.9233 16.576 53.8784 16.6803 53.8554 16.7903C53.8324 16.9003 53.8318 17.0138 53.8536 17.124C53.5383 17.5751 53.3091 18.0806 53.1778 18.6151C51.9987 18.2008 50.8067 17.8393 49.5932 17.542C48.3797 17.2446 47.1034 17.0071 45.8426 16.8081C45.1578 16.6978 44.4674 16.6252 43.7745 16.5907C44.4571 16.1581 45.1526 15.7442 45.8622 15.3588C46.3248 15.0999 46.8089 14.8482 47.2643 14.6108C47.2964 14.6437 47.3351 14.6695 47.3778 14.6863C47.4206 14.7031 47.4665 14.7105 47.5124 14.7082C48.641 14.5774 49.7582 14.3618 50.8545 14.0633C51.9538 13.8809 53.0674 13.7988 54.1816 13.8178C56.4236 13.8687 58.6333 14.3636 60.6828 15.2738C62.7294 16.2284 64.5539 17.5999 66.0395 19.3007C67.5251 21.0014 68.639 22.9938 69.3097 25.1501C69.7026 26.383 69.964 27.6539 70.0894 28.9418C70.181 29.591 70.1742 30.2643 70.1815 30.9662C70.2182 31.2259 70.165 31.4983 70.1603 31.7536C69.7307 32.5919 69.4976 33.5169 69.4787 34.4586C69.4599 35.4002 69.6556 36.3339 70.0513 37.1886C69.9188 37.9102 69.7378 38.6489 69.6481 39.3848C69.6091 39.6858 70.0128 39.7307 70.1586 39.5369C70.4144 39.1984 70.6224 38.8263 70.7767 38.431C71.3764 39.2246 72.1177 39.9005 72.9631 40.4247C72.2383 41.4278 71.422 42.3615 70.5247 43.2138C70.0202 43.7217 69.4854 44.1987 68.9232 44.6419C68.4846 44.9992 67.5365 45.4998 67.5255 46.1432C67.5259 46.2168 67.5492 46.2884 67.5924 46.3481C67.6355 46.4078 67.6962 46.4525 67.766 46.4759C68.3947 46.7438 69.2662 45.9178 69.6748 45.5647C70.2587 45.084 70.8118 44.567 71.3308 44.0168C72.2389 43.0558 73.0255 41.9868 73.6729 40.8339C74.4376 41.1874 75.2541 41.4161 76.0912 41.5113L75.7097 41.8402C75.0883 42.3455 74.4669 42.8509 73.8199 43.3192C72.5266 44.2754 71.1727 45.1471 69.7669 45.9287C69.6914 45.9861 69.6391 46.0689 69.6198 46.1618C69.6004 46.2548 69.6154 46.3516 69.6618 46.4344C69.7082 46.5172 69.783 46.5804 69.8724 46.6123C69.9618 46.6443 70.0597 46.6429 70.1481 46.6083C71.6349 45.9115 73.0669 45.1032 74.4318 44.1904C75.0903 43.7307 75.7459 43.2511 76.3673 42.7457C76.6773 42.488 76.9958 42.2189 77.2716 41.9355L77.5718 41.6079C78.5619 41.5567 79.5314 41.3055 80.4218 40.8695C80.3634 40.9745 80.3278 41.0906 80.3171 41.2102C80.3158 41.2841 80.3339 41.3571 80.3695 41.4218C80.4052 41.4865 80.4571 41.5409 80.5202 41.5793C80.5833 41.6178 80.6554 41.6391 80.7292 41.6411C80.8031 41.6431 80.8762 41.6257 80.9413 41.5907C81.1317 41.4769 81.2882 41.3141 81.3943 41.1193L81.7275 40.6648C81.7854 40.5707 81.8087 40.4593 81.7933 40.3499C81.7778 40.2405 81.7246 40.1399 81.6429 40.0655C82.2467 39.5681 82.7325 38.9428 83.0654 38.2348C83.1173 38.2247 83.1639 38.1965 83.1968 38.1551C84.3246 36.8589 85.1852 35.3526 85.7292 33.7228C86.3808 32.1512 86.8567 30.5125 87.1483 28.8364C87.7598 25.6137 87.3464 22.2805 85.966 19.305C85.3526 17.9068 84.4065 16.6798 83.2102 15.7311C83.8495 15.6409 84.4746 15.4508 85.0898 15.2621C86.3013 16.9745 87.1629 18.9093 87.6252 20.9554C87.8541 21.9638 87.9989 22.9895 88.058 24.0218C88.1135 25.0739 88.1127 26.1282 88.0555 27.1802C88.0499 27.2118 88.0506 27.2441 88.0575 27.2754C88.0645 27.3067 88.0775 27.3363 88.0959 27.3626C88.1142 27.3889 88.1376 27.4112 88.1646 27.4285C88.1916 27.4457 88.2218 27.4574 88.2533 27.463C88.2849 27.4686 88.3172 27.4679 88.3485 27.461C88.3798 27.4541 88.4094 27.441 88.4357 27.4227C88.4619 27.4043 88.4843 27.3809 88.5016 27.3539C88.5188 27.3269 88.5305 27.2968 88.5361 27.2652C89.2303 25.1406 89.263 22.8553 88.6299 20.7118C88.066 18.5969 86.9978 16.6503 85.5167 15.0388C85.9563 14.9055 86.3917 14.7422 86.837 14.5774C87.2141 15.1558 87.6283 15.7086 87.9868 16.2998C88.4482 17.0485 88.8669 17.8227 89.2411 18.6186C91.4225 23.3535 91.636 28.7604 89.835 33.6526C89.5793 34.5318 89.2652 35.3929 88.8948 36.2303C88.6859 36.6265 88.4641 37.0042 88.2367 37.3419C87.9701 37.7432 87.7402 38.1677 87.5498 38.6104C87.3993 39.0595 87.941 39.2886 88.2638 39.0495C88.6094 38.7564 88.9044 38.4084 89.1372 38.0196C89.3917 37.6577 89.6234 37.2786 89.8452 36.9009C90.2646 36.1516 90.6384 35.3776 90.9647 34.5832C91.6234 32.9792 92.0707 31.2963 92.2955 29.5768C92.784 25.9163 92.2583 22.1919 90.7758 18.8095C90.3578 17.8387 89.8613 16.9037 89.2911 16.0138C88.8488 15.4022 88.3619 14.824 87.8347 14.2838C88.4879 14.0086 89.1239 13.6943 89.7393 13.3426C90.2121 13.8056 90.7293 14.2216 91.1892 14.7374C91.7909 15.3952 92.3312 16.1066 92.8033 16.8628C93.761 18.4188 94.4619 20.1189 94.879 21.8978C95.6663 25.7849 95.3975 29.812 94.1005 33.56C93.6358 35.0314 93.0101 36.444 92.477 37.864C92.1979 38.1832 91.9463 38.5254 91.7249 38.887C91.3974 39.3815 91.0785 39.8645 90.7054 40.3247C89.9129 41.2879 89.0093 42.1541 88.0134 42.9051C85.9086 44.4721 83.4202 45.4427 80.8103 45.7147L80.7931 45.7375ZM39.9211 19.3146C40.0205 19.2267 40.1245 19.144 40.2325 19.0669C41.4633 19.174 42.6839 19.3764 43.8835 19.6722C45.3064 20.0318 46.6944 20.5177 48.0309 21.1243C50.7683 22.3742 53.3725 23.8975 55.8036 25.6709C56.7798 26.3686 57.7159 27.1208 58.6073 27.9239L57.3776 27.0787C55.6855 26.062 53.9005 25.2087 52.0466 24.5305C48.3099 23.0761 44.3188 22.3888 40.3109 22.5093C38.7764 22.5477 37.2514 22.7629 35.7662 23.1508C37.0758 21.8137 38.4672 20.5592 39.9324 19.3945L39.9211 19.3146ZM57.8199 25.3762C55.2619 23.4419 52.5077 21.782 49.6027 20.4236C47.0596 19.1211 44.2743 18.3592 41.4223 18.1859L42.712 17.2907L42.7919 17.2795C43.7102 17.5064 44.6715 17.605 45.6199 17.7564C46.8621 17.9682 48.1013 18.2313 49.3191 18.5586C50.5368 18.8859 51.7074 19.2403 52.8722 19.626L53.0661 19.7005C53.0717 19.9129 53.1015 20.124 53.1549 20.3297C53.3833 21.0656 53.8752 21.6912 54.5363 22.0867C55.1975 22.4821 55.9814 22.6196 56.7377 22.4727C57.0757 22.402 57.402 22.2839 57.7069 22.122C60.5573 24.4836 62.8964 27.4013 64.5813 30.6972C66.139 33.8343 66.544 37.4192 65.7255 40.8248L65.7354 40.8947C66.1187 38.137 65.6333 35.3285 64.3466 32.8594C62.77 29.9 60.5375 27.3404 57.8199 25.3762ZM54.711 18.796C54.7009 18.5236 54.7421 18.2517 54.8322 17.9944C55.0479 17.9727 55.2522 17.8871 55.419 17.7486L55.6187 17.7204L55.6886 17.7106L55.7186 17.7063C55.8335 17.6801 55.9505 17.6636 56.0682 17.657L56.218 17.6358L56.4947 17.6477C56.4248 17.6576 56.6944 17.6909 56.7386 17.7152L56.8285 17.7025L56.8884 17.694C56.8884 17.694 57.085 17.8598 57.0836 17.8499C57.0822 17.8399 57.2188 18.0141 57.2032 17.9756C57.1876 17.9371 57.3127 18.1741 57.3568 18.2697C57.2558 18.0599 57.3568 18.2697 57.3709 18.3696C57.385 18.4695 57.416 18.6892 57.4103 18.6493C57.4047 18.6093 57.4399 18.859 57.4554 18.9689L57.4681 19.0588L57.4851 19.1787C57.4584 19.2915 57.4229 19.4021 57.3789 19.5094C57.3789 19.5094 57.2573 19.7303 57.2401 19.7531L57.0403 19.8527L56.9703 19.8625C56.9187 19.923 56.8618 19.9788 56.8003 20.0292L56.7103 20.1132L56.5418 20.2185C56.0733 19.8099 55.5234 19.5056 54.9284 19.3256L54.7445 19.2497C54.7089 19.1022 54.6877 18.9517 54.6811 18.8002L54.711 18.796ZM56.9579 11.1135C58.402 11.3039 59.8283 11.6101 61.2232 12.0293C62.9766 12.6069 64.6332 13.4445 66.1378 14.5141C69.2819 16.8039 71.5989 20.0513 72.7415 23.7693C73.0898 24.8572 73.3363 25.9751 73.4777 27.1086C73.5552 27.658 73.5514 28.2086 73.609 28.7608C73.6217 28.8507 73.6344 28.9406 73.647 29.0305C73.4777 29.0647 73.3104 29.1087 73.1461 29.1623C72.678 29.3099 72.274 29.479 71.86 29.6495C71.6506 29.7288 71.4497 29.8288 71.2603 29.948L71.261 29.5201C71.2522 28.2785 71.1016 27.042 70.8122 25.8345C70.2335 23.4107 69.1558 21.1341 67.6479 19.1501C66.1412 17.2194 64.2445 15.6282 62.0813 14.4801C59.9182 13.3319 57.5373 12.6528 55.094 12.4869C54.1278 12.4107 53.157 12.4114 52.1909 12.4892L52.7162 12.3132C54.1065 11.8419 55.518 11.4491 56.948 11.1149L56.9579 11.1135ZM77.1311 31.3402L77.5218 31.4379C77.8124 31.5218 78.0984 31.6209 78.3787 31.7346L78.4386 31.7262L78.4985 31.7177C78.6311 31.7907 78.7622 31.8537 78.8962 31.9367C79.1399 32.0726 79.3729 32.227 79.593 32.3986L79.744 32.5301C79.8439 32.6162 79.9386 32.7083 80.0274 32.8059L80.2937 33.1045C80.342 33.1565 80.3872 33.2113 80.4289 33.2688C80.5753 33.4839 80.7028 33.7114 80.8101 33.9485C80.8101 33.9485 80.901 34.1597 80.928 34.2069C80.928 34.2069 80.9551 34.254 80.928 34.2069C80.1937 33.9845 79.4652 33.7308 78.781 33.4301C77.3816 32.8037 76.0625 32.0117 74.8519 31.0711L75.0117 31.0485C75.6242 31.007 76.2393 31.0329 76.8461 31.1258L77.1085 31.1804L77.1311 31.3402ZM75.4955 16.5042C75.2378 16.1942 74.9702 15.8856 74.6853 15.5998C75.9108 15.9391 77.1724 16.1304 78.4433 16.1696C79.5676 17.1216 80.5369 18.2426 81.3165 19.4926C81.7896 20.2839 82.1747 21.1246 82.465 21.9996C82.6098 22.4477 82.7245 22.9002 82.8308 23.364C82.9547 23.8019 83.1138 24.2292 83.3065 24.6415C83.3303 24.6795 83.3646 24.7097 83.4052 24.7286C83.4459 24.7475 83.4911 24.7542 83.5355 24.748C83.5798 24.7417 83.6214 24.7227 83.6552 24.6933C83.689 24.6639 83.7136 24.6254 83.726 24.5823C83.8411 24.0988 83.8637 23.5979 83.7927 23.106C83.7083 22.639 83.5889 22.1792 83.4355 21.7302C83.1229 20.771 82.6957 19.853 82.1633 18.9962C81.5028 17.9206 80.6791 16.9543 79.7216 16.1318C80.0812 16.0811 80.4406 16.1016 80.7916 16.0623C81.1426 16.0229 81.7205 15.9312 82.18 15.8663C82.637 16.4334 83.1397 16.9635 83.588 17.542C84.0306 18.1318 84.4224 18.7581 84.759 19.4142C85.4361 20.7486 85.8901 22.185 86.1028 23.6662C86.4337 26.752 85.9805 29.8714 84.7851 32.7354C84.4641 33.5652 84.099 34.3705 83.7339 35.1759L83.6765 35.347C83.5543 33.9233 82.9785 32.5762 82.0339 31.504C82.0671 31.5042 82.1 31.4966 82.1297 31.4818C82.1595 31.467 82.1854 31.4453 82.2052 31.4187C82.4782 31.0012 82.6885 30.5459 82.8295 30.0673C83.0043 29.5741 83.1578 29.0736 83.3313 28.5703C83.5047 28.067 82.7945 27.9431 82.6511 28.3709C82.5078 28.7986 82.3228 29.3646 82.1693 29.8651C81.9913 30.3263 81.8846 30.812 81.853 31.3054C81.4539 30.8769 81.0038 30.4991 80.5126 30.1804C79.7989 29.7196 79.0179 29.3727 78.1976 29.1523C78.8051 27.2191 78.9213 25.165 78.5357 23.1756C78.1262 20.7515 77.1032 18.4725 75.5639 16.5556L75.4955 16.5042ZM81.138 36.6324C81.11 36.7589 81.073 36.8832 81.0275 37.0045C80.986 37.0916 80.951 37.1817 80.9229 37.274C80.8106 37.4822 80.686 37.6835 80.5495 37.8768L80.4538 37.9921L80.1137 38.3254L79.9023 38.4877L79.6881 38.63C79.4628 38.757 79.2307 38.8714 78.9928 38.9726L78.823 38.9966L78.4534 39.0487C78.2137 39.0826 77.974 39.1164 77.7243 39.1516L77.4845 39.1855L77.1077 39.3303C76.8185 39.3296 76.5297 39.3091 76.2433 39.269L76.1834 39.2774L76.0535 39.2958L75.6942 39.2039C75.4211 39.1298 75.1529 39.0383 74.8915 38.93L74.7916 38.9441L74.7032 38.8955L74.3512 38.7109C74.1075 38.5721 73.8624 38.4233 73.6258 38.2631L73.4435 38.1259L73.3751 38.0744L73.2711 37.9872L73.1429 37.8729C72.923 37.6704 72.7157 37.4547 72.522 37.227L72.3898 36.9401C72.3785 36.8602 72.3898 36.9401 72.3771 36.8502C72.3644 36.7603 72.2092 36.5988 72.1295 36.4674C71.9794 36.2088 71.8432 35.9424 71.7215 35.6693C71.6319 35.468 71.7074 35.5694 71.7215 35.6693C71.704 35.5801 71.6913 35.4901 71.6834 35.3996C71.6637 35.2598 71.6439 35.1199 71.6228 34.9701L74.3119 36.628L75.6215 37.4619C76.0148 37.7222 76.5332 38.2195 77.0255 38.1704C77.2752 38.1352 77.6108 37.9146 77.4858 37.6063C77.2912 37.0938 76.7737 36.8918 76.3276 36.6186L74.9281 35.7974C73.9933 35.2366 73.0655 34.6544 72.1392 34.0823C72.0454 34.0175 71.9307 33.9903 71.8178 34.0063C71.7049 34.0222 71.6022 34.08 71.53 34.1682C71.5094 33.3763 71.6551 32.5888 71.9575 31.8565C72.4621 31.773 72.959 31.6483 73.4432 31.4838L74.2852 31.3141C74.2459 31.3876 74.231 31.4718 74.2426 31.5544C74.2543 31.637 74.2919 31.7137 74.35 31.7735C75.5862 32.9045 77.0033 33.8201 78.5424 34.4825C79.4414 34.8973 80.3875 35.2016 81.3597 35.3888C81.3682 35.4487 81.3851 35.5686 81.3922 35.6185C81.3992 35.6685 81.433 35.9082 81.3829 36.0579C81.3327 36.2076 81.4111 36.2576 81.3552 36.3674C81.2994 36.4771 81.3121 36.567 81.2992 36.6198L81.138 36.6324ZM80.5396 37.8782C80.4209 38.0477 80.5396 37.8782 80.5396 37.8782V37.8782ZM80.4402 33.3487C80.4289 33.2688 80.4317 33.2888 80.4402 33.3487V33.3487ZM98.295 13.765C98.5196 13.6877 98.757 13.6542 98.9942 13.6663C99.1417 13.6908 99.2868 13.7283 99.4277 13.7783C99.5624 13.8296 99.6776 13.9221 99.7568 14.0426C99.836 14.1631 99.8752 14.3055 99.8688 14.4495C99.8611 14.6091 99.8192 14.7652 99.7462 14.9073C99.6731 15.0494 99.5705 15.1742 99.4452 15.2734C99.1022 15.5 98.6982 15.6164 98.2872 15.607C97.8762 15.5976 97.478 15.463 97.1456 15.221C96.9449 15.0818 96.7776 14.8996 96.6561 14.6877C96.5345 14.4758 96.4617 14.2394 96.443 13.9958C97.026 14.2293 97.7299 13.8753 98.2908 13.735L98.295 13.765ZM83.6889 8.4408C83.6734 8.33093 83.6791 8.37088 83.6889 8.4408V8.4408ZM83.7016 8.53069C83.6932 8.47076 83.7016 8.53069 83.7016 8.53069C83.6946 8.48075 83.746 8.41236 83.7016 8.53069ZM78.0565 9.5312C78.5114 9.65037 78.9662 9.76954 79.4139 9.9101L79.2741 9.92983C78.9329 9.9405 78.5914 9.93087 78.2513 9.90101L78.1514 9.91511L78.0374 9.82932L77.5056 9.67008L77.4157 9.68277L77.2618 9.60262C77.1149 9.52282 76.973 9.43397 76.8371 9.33657L76.7246 9.26077C77.1852 9.34857 77.6486 9.45634 78.1035 9.57551L78.0565 9.5312ZM75.3411 10.7906C75.9495 11.3061 76.6539 11.6963 77.4136 11.9387C78.1734 12.1811 78.9736 12.271 79.7682 12.2032C80.5712 12.1509 81.3692 12.0383 82.1553 11.8662C82.9687 11.7484 83.756 11.4926 84.4833 11.1098C84.8959 10.8795 85.2488 10.5558 85.5138 10.1646C85.7787 9.77335 85.9484 9.32554 86.0092 8.85697C86.0375 8.38646 85.939 7.91698 85.7239 7.49756C85.5088 7.07813 85.185 6.72415 84.7864 6.47257C83.9619 5.98696 83.0163 5.7459 82.06 5.77753L81.237 5.72052C83.6292 5.35945 86.0692 5.47555 88.4163 6.06212C89.0538 6.22549 89.6634 6.48277 90.2253 6.82551C90.6665 7.10009 91.0016 7.51599 91.1762 8.00544C91.3199 8.55386 91.2648 9.13543 91.0208 9.64715C90.7424 10.1888 90.3509 10.6644 89.873 11.0418C88.7604 11.8635 87.5293 12.5113 86.222 12.963C84.9547 13.4583 83.6427 13.8311 82.3043 14.0762C79.6485 14.5791 76.9095 14.4162 74.332 13.602C72.9728 13.3111 71.7841 12.4935 71.0263 11.3283C70.8467 10.9235 70.8052 10.471 70.9083 10.0404C71.0114 9.60974 71.2532 9.22499 71.5966 8.94544C71.6435 9.0573 71.7291 9.14853 71.8377 9.20242C71.9463 9.25631 72.0707 9.26925 72.1881 9.23888L72.2581 9.22901C72.3964 9.22634 72.5339 9.20693 72.6676 9.17121C72.7591 9.14802 72.8529 9.13479 72.9472 9.13174C73.2282 9.13901 73.5036 9.21177 73.7515 9.34422C74.3557 9.75632 74.9119 10.2348 75.4096 10.7707L75.3411 10.7906ZM61.53 10.3051L62.5288 10.1642C62.4998 10.1881 62.4758 10.2175 62.4582 10.2508C62.4407 10.284 62.43 10.3205 62.4268 10.3579C62.4235 10.3954 62.4278 10.4331 62.4393 10.4689C62.4508 10.5047 62.4694 10.5379 62.4939 10.5664C62.8342 10.8615 63.2453 11.0632 63.6869 11.1519L65.1526 11.6479L68.0084 12.6099C68.5003 12.7748 68.7298 12.0191 68.2465 11.8429L65.3893 10.8708L63.9978 10.3949C63.7024 10.2688 63.3953 10.1723 63.081 10.1066L64.3508 10.0089C65.6705 9.90411 67.0001 9.86926 68.3227 9.78446L69.4269 9.74067C69.3853 9.88167 69.3546 10.0256 69.3349 10.1713C69.2901 10.971 69.4707 11.7671 69.8561 12.4691C70.2416 13.1712 70.8164 13.7509 71.5151 14.1422C71.7303 14.2952 71.9526 14.4269 72.1749 14.5585C72.8326 15.3927 73.6274 16.1159 74.3208 16.9145C75.0477 17.7669 75.6662 18.7062 76.162 19.7108C77.1535 21.7469 77.6316 23.9947 77.5548 26.2581C77.5127 27.1419 77.4193 28.0225 77.275 28.8954C76.7983 28.8176 76.3159 28.7801 75.8329 28.7831C75.5633 28.8212 75.2651 28.8021 74.9727 28.823C74.9852 28.3128 74.9574 27.8023 74.8896 27.2965C74.7817 26.2196 74.5836 25.1537 74.2973 24.11C73.7299 22.058 72.8118 20.1197 71.5836 18.3807C69.2491 15.1169 65.971 12.6465 62.1902 11.302C61.3678 11.0209 60.5262 10.7992 59.672 10.6387L61.5299 10.3765L61.53 10.3051ZM50.5499 5.98706C51.2858 5.47354 52.0879 5.06219 52.9343 4.76423L53.748 4.46602C53.8515 5.25922 53.8588 6.06202 53.7696 6.85696C53.7309 7.25633 53.676 7.66138 53.6049 8.07211C53.5171 8.53274 53.3566 8.98326 53.3116 9.45823C52.1883 9.80014 51.0907 10.1792 50.0001 10.6082C49.7639 10.0074 49.4776 9.42763 49.1442 8.8749C49.0233 8.66784 48.8924 8.4622 48.7629 8.26654C49.1208 7.34486 49.7418 6.54871 50.5485 5.97707L50.5499 5.98706ZM36.0788 11.1468C35.0201 9.098 34.7198 6.74078 35.2312 4.49196C35.3921 3.82746 35.6414 3.2116 35.845 2.56144C35.9297 2.29481 36.0343 2.02537 36.1388 1.75593C36.5342 2.01056 36.9505 2.23126 37.3831 2.41566L38.9924 3.20725C40.0811 3.73565 41.1377 4.3281 42.1563 4.98149C44.0106 6.1199 45.6105 7.62796 46.8565 9.41171C47.1988 9.93162 47.4975 10.4789 47.7496 11.048C47.7666 11.1679 47.8548 11.2879 47.9017 11.4035C45.298 12.5801 42.8105 13.9988 40.4722 15.6407C38.5926 14.5659 37.0503 12.9878 36.019 11.084L36.0788 11.1468ZM33.404 25.6133C33.8071 25.1489 34.2115 24.6945 34.6174 24.2501L34.9804 23.8627C36.5286 23.6442 38.0781 23.507 39.6388 23.4497C41.5555 23.3755 43.4749 23.4867 45.3701 23.7818C49.1795 24.3559 52.8334 25.694 56.1126 27.7157C57.0257 28.2809 57.908 28.8943 58.7558 29.5533C59.1689 29.8821 59.5635 30.2237 59.9182 30.5709C60.288 30.9801 60.791 31.2448 61.3377 31.318C61.4021 31.3333 61.4699 31.3237 61.5275 31.2912C61.721 31.5797 61.916 31.8782 62.108 32.228C62.4394 32.7789 62.7376 33.3492 63.001 33.9357C62.5518 33.4979 62.0756 33.0887 61.5751 32.7107C59.5408 31.2723 57.3215 30.1155 54.9773 29.2716C50.2286 27.3848 45.2454 25.8572 40.1085 25.7672C38.6429 25.7352 37.1775 25.8397 35.7313 26.0794C34.9982 26.2015 34.2733 26.3684 33.5607 26.5794C33.1352 26.7022 32.7172 26.8496 32.3089 27.0209L32.3618 26.9625C32.7334 26.4924 32.985 26.1818 33.4039 25.6846L33.404 25.6133ZM36.2463 30.3057L36.4231 30.4031L36.6952 30.5989C36.7225 30.6325 36.7541 30.6623 36.7892 30.6876C36.8826 30.7789 36.971 30.8753 37.0541 30.9762C37.0639 31.0461 37.2334 31.2361 37.1267 31.0576C37.1436 31.1775 37.269 31.2718 37.3359 31.3846L37.4908 31.6887C36.4846 31.2671 35.5166 30.7596 34.5975 30.1717C34.5087 30.1167 34.4016 30.0993 34.2999 30.1232C34.1982 30.1471 34.1102 30.2104 34.0552 30.2992C34.0002 30.388 33.9827 30.4951 34.0066 30.5968C34.0305 30.6985 34.0938 30.7865 34.1827 30.8415C35.1507 31.4808 36.1825 32.018 37.2613 32.4444L37.8102 32.6522C37.8201 32.7221 37.8285 32.7821 37.8384 32.852L37.8821 33.1616C37.913 33.548 37.9133 33.9363 37.883 34.3228C37.6256 34.1596 37.3536 34.0207 37.0706 33.9078L35.1875 33.0529C33.9174 32.4987 32.6458 31.9345 31.3685 31.4017C30.9138 31.2112 30.5716 31.9624 31.0106 32.1857C32.2578 32.7941 33.5122 33.3811 34.768 33.9781L36.7564 34.9301C37.0875 35.1118 37.4497 35.23 37.8243 35.2785C37.7612 35.481 37.6981 35.6834 37.625 35.8873C37.5519 36.0912 37.4532 36.2579 37.5577 36.0598L37.406 36.3563C37.2829 36.5672 37.1471 36.7596 37.0126 36.9619C37.0126 36.9619 36.8897 37.1015 36.8454 37.1485L36.7754 37.2297C36.3858 37.2847 35.9764 37.2712 35.5841 37.3062L35.1211 36.9131C34.096 35.9979 33.2033 34.9444 32.4687 33.783C32.1643 33.2861 31.3589 33.7156 31.6648 34.2225C32.386 35.4027 33.2612 36.4817 34.2672 37.4309C33.5014 37.539 32.7323 37.6476 31.9599 37.7566L31.9099 37.7636C31.5351 37.4653 31.2258 37.0927 31.0016 36.6694C30.5045 35.6878 30.3093 34.581 30.4406 33.4886C30.5154 32.9012 30.6488 32.3227 30.8387 31.7617C30.8912 31.6931 30.9354 31.6185 30.9703 31.5394C31.3484 30.6813 32.45 30.4748 33.3347 30.3194L34.1538 30.2038C34.3618 30.1631 34.5718 30.1334 34.783 30.115C35.0186 30.1079 35.2545 30.1154 35.4891 30.1376C35.7343 30.1813 35.9752 30.2461 36.2092 30.3314L36.2463 30.3057ZM34.1941 38.4294L33.9644 38.4618L33.5251 38.4525L33.575 38.4455C34.0444 38.3792 34.5039 38.3144 34.9804 38.298C34.7955 38.3342 34.6088 38.3606 34.4211 38.377L34.1941 38.4294ZM33.6681 50.0763C33.4184 50.1116 33.2053 50.4778 33.4474 50.678C35.8538 52.7437 38.6148 54.356 41.5965 55.4364C43.8919 56.2624 46.2943 56.7537 48.7297 56.8949C48.0205 56.995 47.3226 57.175 46.6163 57.295C45.6707 57.4285 44.7218 57.5624 43.7696 57.6968C43.807 57.627 43.8166 57.5457 43.7963 57.4691C43.776 57.3925 43.7275 57.3265 43.6605 57.2844C43.3524 57.1596 43.0213 57.1021 42.6893 57.1158C42.3384 57.0839 41.9803 57.0733 41.6622 57.057C40.9697 57.0301 40.2795 56.9608 39.5955 56.8496C38.2453 56.6103 36.9376 56.1736 35.7146 55.5534C33.1476 54.2467 31.0668 52.1519 29.7773 49.5762C29.4082 48.8447 29.0998 48.0842 28.8553 47.3021C28.7636 46.9891 28.6767 46.6618 28.5945 46.3202C29.9901 47.9139 31.709 49.1924 33.6368 50.0706L33.6681 50.0763ZM22.5775 52.1205C21.9527 51.9297 21.3719 51.617 20.8686 51.2003C20.7418 51.096 20.6336 50.9788 20.5168 50.8731C21.0877 51.0662 21.6684 51.229 22.2564 51.361C22.353 51.6122 22.461 51.8721 22.5775 52.1205ZM21.7381 47.4C21.6586 48.4646 21.7512 49.5351 22.0124 50.5703C21.5178 50.3141 20.9903 50.1135 20.48 49.8901L19.5847 49.5377C19.3796 49.1217 19.2316 48.68 19.1447 48.2245C18.6284 45.5774 19.9781 42.9419 21.8442 41.1505C22.9538 40.2089 24.1109 39.3247 25.3109 38.5015C25.3426 38.8702 25.3943 39.237 25.4659 39.6002C24.4021 40.5763 23.5466 41.7574 22.9508 43.0725C22.2909 44.4274 21.8897 45.8936 21.7681 47.3958L21.7381 47.4ZM23.3095 48.6452C23.2481 47.1096 23.5148 45.5787 24.0917 44.1543C24.554 43.0625 25.0847 42.0009 25.6805 40.9757C25.8027 41.4255 25.9534 41.867 26.1319 42.2975C26.5231 43.2755 27.0236 44.2061 27.6237 45.0718C27.6234 45.7915 27.7245 46.5077 27.924 47.1993C28.0916 47.9829 28.3261 48.7508 28.6248 49.4944C29.2119 50.9127 30.02 52.229 31.0192 53.3943C32.9168 55.5478 35.4192 57.0797 38.2002 57.7902C36.7664 57.7066 35.3395 57.5302 33.9285 57.2623C31.446 56.8784 29.0632 56.0101 26.9156 54.707C25.8834 54.0579 25.0192 53.1741 24.3935 52.1276C23.7678 51.0812 23.3983 49.9016 23.3151 48.6851L23.3095 48.6452ZM29.627 31.2604C29.3464 31.8202 29.1255 32.408 28.9678 33.014C28.61 34.3041 28.64 35.671 29.0539 36.9443C29.2118 37.4103 29.4251 37.8556 29.6894 38.2706C28.8673 38.5089 28.0536 38.8071 27.2614 39.1125C27.1895 38.1402 27.2468 37.1627 27.4317 36.2054C27.8478 34.2882 28.5963 32.4587 29.6434 30.7996C29.6206 30.9488 29.6146 31.1 29.6256 31.2504L29.627 31.2604ZM2.88639 53.2087C2.86243 53.0388 2.87934 53.1587 2.88639 53.2087V53.2087ZM153.715 20.7755L153.639 20.9594C153.569 21.1119 153.489 21.2659 153.407 21.4098C153.086 21.9673 152.721 22.4989 152.317 23L152.232 23.114L152.163 23.2052L151.876 23.5513L151.235 24.2835L149.95 25.7179C149.073 26.6703 148.186 27.6004 147.288 28.508C143.708 32.1189 139.861 35.4544 135.779 38.486L135.458 38.7351L135.216 38.9016L134.431 39.4709L132.855 40.5795C131.804 41.2882 130.752 41.9869 129.675 42.6584C127.519 43.9815 125.312 45.3116 123.086 46.5019C120.86 47.6922 118.545 48.8238 116.203 49.847C115.054 50.3658 113.879 50.8474 112.709 51.359C112.015 51.6403 111.802 51.7212 111.114 51.9711L109.361 52.6158C106.945 53.4663 104.488 54.1797 102.056 54.9203C100.844 55.2849 99.6156 55.6009 98.3982 55.9256C97.1808 56.2502 96.1048 56.4938 94.9815 56.8357C92.704 57.2998 90.4589 57.9222 88.2197 58.5134C84.9586 59.3709 81.7003 60.2485 78.3964 61.0917C71.8671 62.757 65.3109 64.3037 58.6595 65.6093C52.1927 66.9193 45.6639 67.902 39.0979 68.5536C33.0641 69.1098 26.7842 69.222 20.8193 67.8125C18.2928 67.211 15.8433 66.3228 13.5184 65.1654C12.334 64.5817 11.1942 63.9118 10.108 63.161C9.59932 62.805 9.10063 62.4475 8.62626 62.0458C8.15189 61.6442 7.48646 61.188 7.04218 60.7108C6.59789 60.2335 6.1321 59.8205 5.6763 59.406C5.58208 59.3238 5.46895 59.2663 5.34705 59.2386C4.8327 58.5293 4.38506 57.774 4.00988 56.9824C3.98451 56.8026 3.84926 56.6383 3.77394 56.4655L3.63753 56.1486C3.63595 56.1183 3.63171 56.0883 3.62484 56.0587C3.48995 55.6805 3.36505 55.3008 3.26013 54.9183C3.15521 54.5358 3.08448 54.179 3.02092 53.8009L2.93633 53.2016L2.8729 52.7521C2.84017 51.985 2.87488 51.2166 2.97661 50.4556C2.99716 50.3663 3.01162 50.2758 3.01987 50.1846C3.01191 50.1518 3.00718 50.1184 3.00577 50.0847C3.04032 49.8964 3.07488 49.7082 3.11942 49.5185C3.21426 49.1079 3.33049 48.7043 3.45812 48.3094C3.58574 47.9145 3.71184 47.5809 3.86649 47.233C3.99971 46.8962 4.15417 46.5682 4.32892 46.2509C4.69887 45.5456 5.11312 44.8645 5.56917 44.2116L6.1954 43.3795L6.34406 43.2058L6.49271 43.032C6.64994 42.8468 6.7986 42.673 6.95865 42.5078C7.56328 41.8519 8.20747 41.2337 8.88761 40.6565C10.2466 39.5097 11.7092 38.4916 13.2566 37.6153C14.8958 36.6708 16.592 35.8406 18.3151 35.0574C21.2033 33.7227 24.1939 32.5366 27.0494 31.1148C26.4887 32.2397 26.051 33.4217 25.7439 34.6405C25.4987 35.6093 25.3621 36.6024 25.3366 37.6014C23.7787 38.099 22.3577 38.9518 21.1855 40.0923C20.0238 41.1289 19.1021 42.4062 18.4844 43.8353C17.7817 45.4601 17.6328 47.2709 18.0606 48.9887L13.6525 47.3493C13.0508 47.1286 12.7368 48.0796 13.3584 48.2975L17.8607 49.9542C18.0774 50.0458 18.3026 50.1261 18.5165 50.1978C18.8366 50.8615 19.2734 51.4624 19.806 51.9717C20.2597 52.444 20.805 52.8189 21.4084 53.0735C22.0118 53.3281 22.6608 53.4571 23.3157 53.4527C23.7457 54.0786 24.2539 54.647 24.8278 55.1443C26.9217 56.8228 29.3862 57.9768 32.0163 58.5102C34.9825 59.2177 38.0274 59.5412 41.0761 59.4726C42.8152 59.4415 44.549 59.2717 46.2611 58.9649C47.9585 58.6963 49.6021 58.1582 51.1298 57.3711C51.2061 57.3352 51.268 57.2746 51.3054 57.199C51.3429 57.1234 51.3536 57.0374 51.3359 56.9549C52.0975 56.9392 52.8573 56.8728 53.6101 56.7562C54.0396 56.6955 54.4591 56.6363 54.8788 56.5058L55.5581 56.3386C55.7813 56.2536 55.9948 56.1449 56.1949 56.0144C56.2641 55.9721 56.3181 55.9089 56.3491 55.834C56.3801 55.759 56.3866 55.6762 56.3675 55.5973C56.3485 55.5185 56.3049 55.4477 56.2431 55.3952C56.1812 55.3427 56.1043 55.3112 56.0235 55.3051C55.826 55.2766 55.6267 55.2639 55.4272 55.267L54.9178 55.3389C54.5283 55.3939 54.1287 55.4503 53.7392 55.5053C53.0001 55.6096 52.2511 55.644 51.5107 55.667C49.978 55.7322 48.4426 55.6695 46.9203 55.4796C43.9088 55.0946 40.9835 54.2058 38.267 52.8501C36.7554 52.1152 35.318 51.2366 33.9746 50.2266C34.9996 50.6586 36.0694 50.9757 37.1642 51.1721C37.7524 51.2675 38.3459 51.3267 38.9414 51.3491C39.3936 51.377 39.5432 50.6326 39.0712 50.5362C35.4998 49.9479 32.2343 48.1638 29.8099 45.4763C32.4844 45.3064 35.1685 45.3672 37.8326 45.6581C40.8033 45.9742 43.7353 46.5841 46.5857 47.4789C47.3742 47.7241 48.154 47.9808 48.9282 48.2688C49.6686 48.6485 50.4848 48.8571 51.3166 48.8791C51.5464 48.8467 51.5582 48.57 51.4558 48.4215C50.9144 47.8792 50.237 47.4927 49.4947 47.3026C48.8147 47.0318 48.1175 46.7839 47.416 46.5773C45.9721 46.1196 44.504 45.7419 43.0184 45.4457C40.0458 44.8416 37.0173 44.5553 33.9841 44.5917C32.4541 44.6278 30.9276 44.7548 29.4128 44.9721C28.954 44.359 28.5575 43.7017 28.2292 43.01C27.7331 41.9419 27.4202 40.798 27.3033 39.6261C28.2866 39.3752 29.2028 39.1542 30.1647 38.9676C30.5456 39.4182 31.0027 39.7985 31.5151 40.0911C32.6481 40.6946 33.9504 40.9017 35.2146 40.6793C36.0438 40.5406 36.8332 40.2241 37.5286 39.7517C37.7085 39.7869 37.8949 39.7605 38.058 39.677C38.1173 39.6429 38.1643 39.5908 38.1921 39.5283C38.2199 39.4658 38.2271 39.396 38.2127 39.3292C38.2119 39.2887 38.2062 39.2484 38.1957 39.2093C38.5614 38.8819 38.8923 38.5177 39.1833 38.1225L40.3202 38.1658C44.7971 38.39 49.1939 39.4411 53.2881 41.2661C54.4223 41.7727 55.5242 42.3486 56.5877 42.9906C57.6979 43.6387 58.7137 44.4122 59.7968 45.0845C60.3882 45.4493 61.1714 44.5747 60.5944 44.0958C59.6736 43.3621 58.6855 42.7171 57.6433 42.1693C56.6371 41.6084 55.608 41.1016 54.5645 40.6377C52.4531 39.6907 50.266 38.9225 48.0262 38.3414C45.3055 37.6534 42.5178 37.2646 39.7127 37.1819C39.995 36.6237 40.1991 36.0293 40.3191 35.4154C40.4576 34.7174 40.511 34.0052 40.4782 33.2944L40.658 33.269C40.7066 33.2678 40.7534 33.2499 40.7903 33.2183C40.8273 33.1867 40.8523 33.1433 40.8611 33.0955C40.8699 33.0476 40.8619 32.9982 40.8386 32.9555C40.8152 32.9128 40.7779 32.8795 40.7328 32.8611L40.432 32.7508C40.4092 32.4453 40.3663 32.1417 40.3037 31.8418C42.3541 31.7205 44.4114 31.7951 46.4475 32.0647C47.7116 32.2623 48.9587 32.5562 50.1779 32.944C50.8067 33.1405 51.4183 33.3598 52.0342 33.6091L52.9637 33.9873C53.2671 34.1012 53.5857 34.1695 53.9091 34.19C53.9695 34.1899 54.0286 34.1723 54.0792 34.1393C54.1298 34.1064 54.1697 34.0595 54.1943 34.0043C54.2188 33.9492 54.2268 33.8881 54.2174 33.8284C54.208 33.7688 54.1815 33.7132 54.1411 33.6683C53.3441 32.9898 52.4005 32.5057 51.3845 32.2542C50.3844 31.9091 49.3645 31.6244 48.3303 31.4017C46.2382 30.9503 44.0968 30.7698 41.9588 30.8646C41.2868 30.905 40.6175 30.9824 39.9541 31.0966C39.5612 29.8669 38.7119 28.8346 37.5808 28.2124C36.0016 27.4166 34.3061 27.8189 32.6948 28.2398C31.9703 28.4094 31.2841 28.7136 30.6719 29.1366C30.9894 28.6435 31.3298 28.1676 31.6801 27.6903C32.277 27.6264 32.8675 27.5124 33.4453 27.3495C34.0646 27.2621 34.674 27.1048 35.2918 27.0074C36.515 26.8196 37.7497 26.7169 38.9871 26.6997C41.4557 26.6833 43.9173 26.9652 46.3182 27.5395C48.709 28.1086 51.0565 28.8462 53.3431 29.7467C55.625 30.5361 57.8183 31.5615 59.8873 32.8063C60.943 33.4874 61.9019 34.3082 62.7377 35.2462C63.1432 35.7125 63.507 36.2133 63.8251 36.7431L64.0327 37.1314C64.1614 37.8985 64.2098 38.677 64.1772 39.4541L63.841 39.1654C63.3598 38.5904 62.8215 38.0656 62.2345 37.5992C61.0875 36.661 59.7737 35.9478 58.3621 35.4971C58.2559 35.4793 58.147 35.5007 58.0554 35.5573C57.9639 35.6138 57.896 35.7017 57.8645 35.8046C57.8329 35.9074 57.8398 36.0183 57.8838 36.1165C57.9279 36.2146 58.006 36.2935 58.1039 36.3383C60.0399 36.9625 61.7525 38.1367 63.0326 39.7175C63.3316 40.1032 63.5931 40.6571 63.9364 40.9958C63.6939 42.2213 63.223 43.3902 62.5482 44.4415C62.1707 45.017 61.7254 45.545 61.2217 46.0142C60.9074 46.3132 60.5674 46.5751 60.2403 46.8556C60.1869 46.8079 60.122 46.7748 60.052 46.7597C59.982 46.7446 59.9093 46.7479 59.841 46.7693C59.5014 46.8173 59.1518 46.8666 58.8577 47.0202L57.8814 47.321L57.3533 47.477C56.7158 46.9599 56.0111 46.5316 55.2584 46.2038C54.523 45.8051 53.769 45.4429 52.9963 45.1173C51.4818 44.4677 49.9156 43.9459 48.3141 43.5573C48.218 43.543 48.12 43.5638 48.038 43.6159C47.956 43.6681 47.8956 43.7481 47.8679 43.8412C47.8401 43.9343 47.8469 44.0343 47.887 44.1228C47.9271 44.2113 47.9977 44.2824 48.086 44.323C49.6219 44.7817 51.1243 45.3457 52.5825 46.011C53.3076 46.3366 54.0103 46.6958 54.6906 47.0888C55.0426 47.2734 55.3775 47.4808 55.721 47.6768L55.9903 47.8527C54.7186 48.2258 53.4499 48.5475 52.1499 48.7921C50.8499 49.0367 49.5929 49.153 48.3144 49.3335C46.9471 49.3364 45.5857 49.5114 44.2621 49.8545C44.0494 49.9354 43.8976 50.3032 44.1784 50.4164C45.4816 50.8905 46.8801 51.0426 48.2548 50.8598C49.6395 50.7798 51.0174 50.6091 52.3798 50.3489C53.711 50.1034 55.0256 49.7749 56.3159 49.3654C56.9982 49.1469 57.6848 48.887 58.3472 48.5999L59.2366 48.1892L59.5579 48.0114C59.6173 48.0977 59.6996 48.1658 59.7955 48.208C59.8914 48.2503 59.9972 48.265 60.101 48.2505C60.2287 48.2426 60.3556 48.2247 60.4805 48.197C61.0072 48.39 61.5556 48.5179 62.1133 48.5777C62.5184 48.6326 62.9334 48.6861 63.3456 48.7196L62.171 49.0586C61.1919 49.3394 60.2799 49.5904 59.3237 49.817C57.4102 50.2704 55.4726 50.6153 53.5202 50.8501C53.0807 50.9121 53.1465 51.6669 53.6302 51.6292C55.6079 51.4876 57.5736 51.2101 59.5133 50.7988C60.5022 50.5879 61.4883 50.357 62.3775 50.0889C63.3548 49.8653 64.2885 49.4823 65.1413 48.9552C65.1814 48.9265 65.2153 48.89 65.2409 48.8479C65.2664 48.8058 65.2832 48.7589 65.29 48.71C66.1862 48.6838 67.0805 48.612 67.9695 48.4949C70.5535 48.1667 73.0697 47.4334 75.4254 46.3219L75.8152 46.1243C75.8222 46.1866 75.8457 46.2458 75.8832 46.2961C75.9208 46.3463 75.971 46.3856 76.0287 46.4099C77.4012 46.9549 78.8692 47.2188 80.3456 47.1861L80.7851 47.1241C80.7651 47.1539 80.7523 47.1878 80.7477 47.2234C80.7431 47.2589 80.7468 47.2951 80.7585 47.3289C80.7702 47.3628 80.7896 47.3935 80.8151 47.4187C80.8407 47.4438 80.8717 47.4627 80.9057 47.4738C83.0666 48.3173 85.3369 48.8476 87.6479 49.0486C89.9726 49.2323 92.3116 49.0907 94.5973 48.6281C95.261 48.4926 95.917 48.3218 96.5625 48.1164C97.1891 47.9172 97.7831 47.6275 98.3258 47.2563C98.3766 47.2354 98.4173 47.1956 98.4393 47.1452C98.4613 47.0949 98.4629 47.038 98.4438 46.9865C98.4246 46.935 98.3862 46.8929 98.3366 46.8692C98.287 46.8455 98.2302 46.842 98.1781 46.8594C97.6216 46.9142 97.0699 47.0091 96.5271 47.1434L94.8916 47.5372C93.8017 47.7845 92.6982 47.9675 91.5868 48.0852C89.3346 48.3091 87.063 48.2464 84.8266 47.8984C83.6248 47.7272 82.4357 47.4765 81.2672 47.1477C82.4462 47.0387 83.608 46.7892 84.7279 46.4046C85.6267 46.1024 86.4967 45.7205 87.3275 45.2634C89.7801 46.2114 92.4092 46.6155 95.0332 46.4476C97.9861 46.3065 100.877 45.5515 103.522 44.2307C104.275 43.8635 104.999 43.4378 105.685 42.9576C106.009 42.729 106.314 42.4748 106.597 42.1973C106.904 41.9319 107.156 41.6091 107.339 41.2471C107.415 41.0632 107.208 40.8988 107.04 40.9327C106.734 41.0213 106.44 41.1484 106.166 41.3107C105.842 41.4793 105.529 41.6665 105.227 41.8712C104.644 42.2183 104.05 42.5568 103.452 42.8654C102.219 43.5065 100.928 44.0297 99.5973 44.4281C96.9234 45.2361 94.1216 45.5348 91.3375 45.3087C90.2261 45.2425 89.1195 45.113 88.0228 44.9208C88.973 44.3313 89.8557 43.6396 90.6554 42.8582C90.7113 42.9124 90.7845 42.9453 90.8621 42.9512C95.7202 43.4497 100.598 42.2127 104.631 39.4593C105.857 38.7636 106.893 37.7779 107.649 36.5885C109.435 36.015 111.147 35.2331 112.75 34.2589C115.832 32.4192 118.133 29.5141 119.218 26.0928C119.481 25.1999 119.621 24.2753 119.634 23.3445C119.649 22.8547 119.617 22.3646 119.54 21.8807C119.523 21.7609 119.507 21.651 119.491 21.5311C119.819 21.4033 120.144 21.2555 120.449 21.1005C120.788 21.3758 121.112 21.6702 121.419 21.9823C121.81 22.4138 122.145 22.8938 122.415 23.4105C122.942 24.4449 123.238 25.5815 123.282 26.7416C123.298 29.1355 122.404 31.4461 120.782 33.2068C120.331 33.7161 119.847 34.196 119.334 34.6438L118.55 35.2944C118.272 35.5314 118.016 35.7926 117.784 36.0748C117.568 36.3498 117.869 36.6741 118.177 36.6204C118.844 36.4759 119.468 36.1786 120 35.7519C120.57 35.342 121.102 34.8817 121.589 34.3765C122.558 33.369 123.335 32.1925 123.88 30.9053C124.397 29.6752 124.63 28.3444 124.562 27.0118C124.494 25.6793 124.126 24.3792 123.486 23.2083C123.145 22.5789 122.72 21.9981 122.224 21.4815C121.91 21.1572 121.565 20.8647 121.194 20.6082C122.59 20.8852 123.923 21.419 125.124 22.1825C126.997 23.3959 128.435 25.1727 129.233 27.2566C129.46 27.8579 129.64 28.4765 129.769 29.1063C129.867 29.7562 130.046 30.3915 130.301 30.9974C130.434 31.2943 130.847 31.1852 130.95 30.9057C131.28 29.6709 131.16 28.3591 130.611 27.2047C130.175 26.006 129.546 24.887 128.748 23.8919C127.249 22.0213 125.184 20.6865 122.863 20.0874C122.599 20.0228 122.346 19.9667 122.085 19.9221C122.232 19.7811 122.371 19.6322 122.501 19.4762L122.614 19.552C122.869 19.6994 123.125 19.8568 123.389 19.9927C123.662 20.1462 123.963 20.2423 124.274 20.2752C124.333 20.2779 124.392 20.2649 124.444 20.2375C124.497 20.2101 124.541 20.1693 124.572 20.1192C124.603 20.0692 124.621 20.0118 124.622 19.9528C124.624 19.8938 124.61 19.8354 124.582 19.7836C124.413 19.5194 124.191 19.2939 123.928 19.122L123.177 18.6371L123.078 18.5799C123.177 18.4041 123.263 18.2217 123.337 18.034C125.492 18.2142 127.554 18.9891 129.295 20.2722C131.035 21.5554 132.385 23.2965 133.195 25.3017C133.437 25.94 133.644 26.5909 133.816 27.2514C133.913 27.574 134.009 27.8966 134.117 28.2277C134.201 28.5407 134.343 28.8352 134.535 29.0958C134.564 29.1235 134.598 29.1443 134.636 29.1566C134.674 29.1689 134.715 29.1724 134.754 29.1668C134.793 29.1612 134.831 29.1467 134.864 29.1244C134.897 29.1021 134.925 29.0725 134.945 29.038C135.069 28.787 135.142 28.5134 135.157 28.2337C135.191 27.8957 135.18 27.5547 135.126 27.2194C135.033 26.5447 134.851 25.8853 134.584 25.2584C134.101 24.0437 133.433 22.9112 132.603 21.9012C131.017 19.9773 128.892 18.5709 126.501 17.8624C125.567 17.5779 124.602 17.4063 123.627 17.3511C123.763 16.7745 123.77 16.1751 123.647 15.5955C123.525 15.0159 123.277 14.4703 122.92 13.9975L122.847 13.9161C124.818 13.8595 126.772 14.285 128.541 15.1556C130.31 16.0262 131.839 17.3157 132.996 18.9118C133.339 19.3932 133.646 19.8388 133.959 20.3957C134.182 20.9339 134.529 21.4121 134.971 21.7911C135.005 21.8118 135.044 21.8245 135.083 21.8282C135.123 21.8319 135.163 21.8265 135.2 21.8124C135.238 21.7983 135.271 21.7759 135.298 21.7468C135.326 21.7178 135.346 21.6829 135.358 21.6448C135.458 21.0986 135.36 20.5346 135.082 20.0537C134.859 19.5314 134.587 19.0309 134.27 18.5588C133.603 17.5824 132.793 16.7112 131.868 15.9741C130.056 14.4648 127.862 13.4843 125.529 13.1403C124.344 12.977 123.141 12.9923 121.96 13.1856C121.269 12.7939 120.502 12.5548 119.711 12.4843C118.725 12.3617 117.726 12.3928 116.75 12.5763C116.59 12.3424 116.405 12.1259 116.2 11.9306C116.046 11.7791 115.882 11.629 115.72 11.489C116.359 11.3987 117.003 11.4098 117.642 11.3909C118.957 11.348 120.274 11.3764 121.586 11.476C124.151 11.684 126.677 12.2391 129.093 13.1263C131.233 13.8647 133.197 15.0414 134.857 16.5811C135.66 17.3369 136.321 18.2304 136.809 19.2193C136.824 19.3291 136.91 19.4291 136.955 19.5348C137 19.6404 136.989 19.7745 136.986 19.7545C137.07 19.9872 137.145 20.2313 137.209 20.4667C137.273 20.7022 137.275 20.9362 137.357 21.1589C137.44 21.3815 137.39 21.3886 137.407 21.5085L137.426 21.6483C137.463 22.2143 137.447 22.7825 137.381 23.3458C137.392 23.395 137.399 23.4452 137.402 23.4956L137.425 23.6554C137.425 23.6554 137.437 23.7453 137.439 23.7553C137.427 23.8365 137.412 23.917 137.391 23.9963C137.335 24.2487 137.259 24.504 137.182 24.7492L137.05 25.1142L136.988 25.2553C136.966 25.2934 136.948 25.3335 136.934 25.375C136.81 25.6185 136.673 25.8554 136.525 26.0848C136.233 26.5436 135.982 27.0069 135.696 27.4343C135.642 27.5272 135.616 27.6339 135.621 27.7413C135.626 27.8488 135.663 27.9524 135.726 28.0396C135.789 28.1268 135.876 28.1938 135.976 28.2324C136.077 28.271 136.186 28.2795 136.291 28.257C136.826 28.064 137.324 27.7801 137.762 27.4178C138.173 27.0332 138.513 26.5782 138.764 26.0743C139.328 25.0529 139.651 23.9169 139.711 22.752C139.798 20.36 139.007 18.0189 137.488 16.169C135.779 14.1789 133.602 12.6448 131.153 11.7046C128.594 10.6239 125.887 9.9345 123.123 9.65973C121.574 9.4922 120.012 9.47715 118.461 9.61481C117.646 9.68397 116.836 9.79834 116.034 9.95738C115.667 10.0183 115.304 10.1034 114.949 10.2123L114.582 10.3558C114.042 9.92265 113.442 9.49795 112.922 9.13331L112.81 9.05751L115.137 8.72903C115.996 8.60779 116.855 8.48655 117.714 8.36531L118.942 8.19191L120.131 8.02415C123.523 7.69671 126.932 7.59664 130.337 7.72461C132.027 7.79165 133.705 7.91144 135.381 8.09258C136.249 8.18391 137.101 8.29804 137.964 8.42075L139.172 8.60681L139.421 8.64289L139.661 8.68038L140.341 8.80849C141.993 9.10513 143.631 9.45454 145.261 9.88668C146.032 10.0834 146.798 10.3115 147.549 10.5824C147.903 10.7057 148.248 10.8404 148.624 10.9808L148.787 11.0495L148.951 11.1283L149.509 11.406C149.907 11.6249 150.296 11.8552 150.628 12.114L151.128 12.4815L151.385 12.7101C151.706 12.9826 152.003 13.2813 152.275 13.6032L152.423 13.7861L152.433 13.856L152.44 13.9059L152.754 14.4015C152.963 14.7484 153.143 15.1112 153.294 15.4866C153.294 15.4866 153.303 15.5465 153.306 15.5665C153.308 15.5864 153.337 15.7862 153.402 15.889C153.468 15.9919 153.521 16.3001 153.569 16.497C153.618 16.694 153.627 16.9065 153.657 17.1163C153.672 17.2262 153.688 17.336 153.703 17.4459C153.724 17.6975 153.759 17.9477 153.809 18.195L153.823 18.2949C153.843 18.4348 153.861 18.5646 153.83 18.7015C153.824 18.9234 153.906 19.1387 154.057 19.301C154.057 19.301 154.072 19.4109 154.031 19.4779C153.989 19.5449 154.031 19.4779 154.031 19.4779C154.031 19.4779 153.996 19.6661 153.971 19.7716C153.911 20.1123 153.826 20.448 153.715 20.7755Z" fill="#FFB800"/>
</svg>
